<svg xmlns="http://www.w3.org/2000/svg" viewBox="0 0 48 48"><defs><style>.cls-1{fill:#1a1a1a;}.cls-2{fill:#fefefe;}</style></defs><circle class="cls-1" cx="24" cy="24" r="24"/><path class="cls-2" d="M24,15.8c2.67,0,3,0,4,.06a5.53,5.53,0,0,1,1.86.34,3.31,3.31,0,0,1,1.9,1.9A5.53,5.53,0,0,1,32.14,20c0,1.05.06,1.37.06,4s0,3-.06,4a5.53,5.53,0,0,1-.34,1.86,3.31,3.31,0,0,1-1.9,1.9,5.53,5.53,0,0,1-1.86.34c-1.05,0-1.37.06-4,.06s-3,0-4-.06a5.53,5.53,0,0,1-1.86-.34,3.31,3.31,0,0,1-1.9-1.9A5.53,5.53,0,0,1,15.86,28c0-1.05-.06-1.37-.06-4s0-3,.06-4a5.53,5.53,0,0,1,.34-1.86,3.31,3.31,0,0,1,1.9-1.9A5.53,5.53,0,0,1,20,15.86c1.05,0,1.37-.06,4-.06M24,14c-2.72,0-3.06,0-4.12.06a7.34,7.34,0,0,0-2.43.46,5.11,5.11,0,0,0-2.92,2.92,7.34,7.34,0,0,0-.46,2.43C14,20.94,14,21.28,14,24s0,3.06.06,4.12a7.34,7.34,0,0,0,.46,2.43,5.11,5.11,0,0,0,2.92,2.92,7.34,7.34,0,0,0,2.43.46c1.07,0,1.41.06,4.12.06s3.06,0,4.12-.06a7.34,7.34,0,0,0,2.43-.46,5.11,5.11,0,0,0,2.92-2.92,7.34,7.34,0,0,0,.46-2.43c0-1.07.06-1.41.06-4.12s0-3.06-.06-4.12a7.34,7.34,0,0,0-.46-2.43,5.11,5.11,0,0,0-2.92-2.92,7.34,7.34,0,0,0-2.43-.46C27.06,14,26.72,14,24,14Z"/><path class="cls-2" d="M24,18.86A5.14,5.14,0,1,0,29.14,24,5.14,5.14,0,0,0,24,18.86Zm0,8.47A3.33,3.33,0,1,1,27.33,24,3.33,3.33,0,0,1,24,27.33Z"/><circle class="cls-2" cx="29.34" cy="18.66" r="1.2"/></svg>