<svg xmlns="http://www.w3.org/2000/svg" viewBox="0 0 92 38.39"><defs><style>.cls-1{fill:#1a1a1a;}</style></defs><path id="u" class="cls-1" d="M34.34,31.07H30.85V29c-1.32,1.52-2.44,2.28-3.67,2.28A2.19,2.19,0,0,1,25,29.91a7.39,7.39,0,0,1-.39-2.7V12.52h3.49V27.58c.08.52.3.7.74.7.67,0,1.27-.58,2-1.62V12.52h3.49Z"/><path id="o" class="cls-1" d="M22,18.58a7.39,7.39,0,0,0-1.1-4.41,4.63,4.63,0,0,0-3.86-1.79,4.4,4.4,0,0,0-3.86,1.79,7.36,7.36,0,0,0-1.1,4.42v6.59a6.84,6.84,0,0,0,1.06,4.26,4.86,4.86,0,0,0,3.9,1.93A4.91,4.91,0,0,0,21,29.45a6.93,6.93,0,0,0,1-4.26Zm-3.49,7c.18,1.84-.39,2.75-1.47,2.75s-1.65-.91-1.47-2.75V18.21c-.18-1.84.39-2.7,1.47-2.7s1.65.86,1.47,2.7Z"/><path id="y" class="cls-1" d="M8.26,21v10.1H4.59V21S.79,8.59,0,6.28H3.86L6.43,16,9,6.28h3.86Z"/><path class="cls-1" d="M70.22,15.47a2.58,2.58,0,0,0-1.73.84V27.45a2.56,2.56,0,0,0,1.73.84c1,0,1.39-.7,1.39-2.54v-7.9C71.61,16,71.18,15.47,70.22,15.47Z"/><path class="cls-1" d="M83.92,17.68c0-1.7-.44-2.21-1.54-2.21s-1.58.47-1.58,2.18v2h3.12Z"/><path class="cls-1" d="M91.45,8.28s-.54-3.76-2.18-5.42A7.86,7.86,0,0,0,83.78.55C76.11,0,64.6,0,64.6,0h0S53.06,0,45.39.55A7.86,7.86,0,0,0,39.9,2.86c-1.64,1.66-2.18,5.42-2.18,5.42a82.18,82.18,0,0,0-.55,8.83v4.14a82.18,82.18,0,0,0,.55,8.83s.54,3.76,2.18,5.42c2.09,2.17,4.83,2.11,6,2.33,4.39.42,18.64.55,18.64.55s11.52,0,19.19-.57a7.86,7.86,0,0,0,5.49-2.31c1.64-1.66,2.18-5.42,2.18-5.42A82.28,82.28,0,0,0,92,21.26V17.12A82.29,82.29,0,0,0,91.45,8.28ZM49.21,31.07H45.54V10H41.68V6.47H53.25V10h-4Zm13.22,0H58.94V29c-1.32,1.52-2.44,2.28-3.67,2.28a2.19,2.19,0,0,1-2.19-1.42,7.39,7.39,0,0,1-.39-2.7V12.71h3.49V27.58c.08.52.3.7.74.7.67,0,1.27-.58,2-1.62v-14h3.49ZM75.1,25.56a14.12,14.12,0,0,1-.37,3.67A2.73,2.73,0,0,1,72,31.31a4.72,4.72,0,0,1-3.5-2.09v1.85H65.19V6.46h3.31v8A4.76,4.76,0,0,1,72,12.41a2.69,2.69,0,0,1,2.66,2.14,12.88,12.88,0,0,1,.44,3.66Zm7.3,2.72a1.43,1.43,0,0,0,1.49-1.33c0-.18,0-1,0-2.31h3.49v.52a20.91,20.91,0,0,1-.12,2.16,4.73,4.73,0,0,1-.78,2,4.6,4.6,0,0,1-4,2,4.76,4.76,0,0,1-4-1.88,6.79,6.79,0,0,1-1.16-4.23V18.77a7.38,7.38,0,0,1,1.12-4.41,4.76,4.76,0,0,1,4-1.92,4.65,4.65,0,0,1,3.92,1.92,7.2,7.2,0,0,1,1.08,4.32v3.75H80.79v3.3C80.78,27.43,81.27,28.28,82.41,28.28Z"/></svg>