<svg xmlns="http://www.w3.org/2000/svg" viewBox="0 0 404 19.61"><defs><style>.cls-1{fill:#fff;}</style></defs><rect class="cls-1" x="96.43" y="15.52" width="16.53" height="3.05" rx="0.33" ry="0.33"/><path class="cls-1" d="M237.64.26h-3.42a.32.32,0,0,0-.25.11l-5,5.77a.18.18,0,0,1-.28,0l-5-5.77a.33.33,0,0,0-.25-.11H220a.33.33,0,0,0-.33.33V19.28a.33.33,0,0,0,.33.33h2.94a.33.33,0,0,0,.33-.33V5.18c0-.12.06-.09.11,0L228.56,11a.32.32,0,0,0,.24.11h0A.33.33,0,0,0,229,11l5.18-5.83c.05-.06.14-.15.14,0v14.1a.33.33,0,0,0,.33.33h2.94a.33.33,0,0,0,.33-.33V.59A.33.33,0,0,0,237.64.26Z"/><rect class="cls-1" x="250.51" y="0.26" width="3.59" height="19.35" rx="0.33" ry="0.33"/><path class="cls-1" d="M280.27,19.28v-2.4a.33.33,0,0,0-.33-.33H270s-.2,0-.13-.13l9.94-13.6a.32.32,0,0,0,.06-.19v-2a.33.33,0,0,0-.33-.33H266.26a.33.33,0,0,0-.33.33V3a.33.33,0,0,0,.33.33h8.79s.23,0,.11.16h0L265.31,17a.33.33,0,0,0-.06.19v2a.33.33,0,0,0,.33.33h14.37A.33.33,0,0,0,280.27,19.28Z"/><path class="cls-1" d="M306.4.26h-2.94a.33.33,0,0,0-.33.33V12.32a4.1,4.1,0,0,1-.33,1.65,4.23,4.23,0,0,1-.92,1.34,4.5,4.5,0,0,1-1.38.91,4.26,4.26,0,0,1-3.29,0,4.51,4.51,0,0,1-1.38-.91A4.23,4.23,0,0,1,294.9,14a4.09,4.09,0,0,1-.33-1.65V.59a.33.33,0,0,0-.33-.33H291.3a.33.33,0,0,0-.33.33V12.14a6.94,6.94,0,0,0,.63,2.91,7.57,7.57,0,0,0,1.69,2.37A8.24,8.24,0,0,0,295.78,19a8.12,8.12,0,0,0,6.1,0,8.4,8.4,0,0,0,2.5-1.59,7.43,7.43,0,0,0,1.71-2.37,6.93,6.93,0,0,0,.63-2.91V.59A.33.33,0,0,0,306.4.26Z"/><path class="cls-1" d="M330,2.09a8.14,8.14,0,0,0-2.52-1.5,8.49,8.49,0,0,0-3-.55h-7.38a.33.33,0,0,0-.33.33V19.07a.33.33,0,0,0,.33.33h7.41a8.57,8.57,0,0,0,3-.53,8,8,0,0,0,2.5-1.49,7.09,7.09,0,0,0,1.71-2.28,6.63,6.63,0,0,0,.63-2.87v-5a6.63,6.63,0,0,0-.63-2.87A7.09,7.09,0,0,0,330,2.09Zm-1.25,10.28a3.58,3.58,0,0,1-.34,1.57,4,4,0,0,1-.93,1.25,4.46,4.46,0,0,1-1.37.84,4.55,4.55,0,0,1-1.68.31H320.5a.16.16,0,0,1-.16-.16V3.29a.16.16,0,0,1,.16-.16h3.92a4.58,4.58,0,0,1,1.68.31,4.48,4.48,0,0,1,1.37.84,4,4,0,0,1,.93,1.25,3.58,3.58,0,0,1,.34,1.57Z"/><path class="cls-1" d="M354.42,0H342.3a.33.33,0,0,0-.33.33V19.07a.33.33,0,0,0,.33.33h12.12a.33.33,0,0,0,.33-.33v-2.4a.33.33,0,0,0-.33-.33h-8.69a.16.16,0,0,1-.16-.16V11a.16.16,0,0,1,.16-.16h7.17a.33.33,0,0,0,.33-.33V8.15a.33.33,0,0,0-.33-.33h-7.17a.16.16,0,0,1-.16-.16V3.29a.16.16,0,0,1,.16-.16h8.69a.33.33,0,0,0,.33-.33V.37A.33.33,0,0,0,354.42,0Z"/><path class="cls-1" d="M374.87,11.56c-.07-.13.05-.16.05-.16h0a4.7,4.7,0,0,0,1.31-.62,5.5,5.5,0,0,0,1.37-1.34,6.26,6.26,0,0,0,.85-1.69,5.93,5.93,0,0,0,.3-1.84,5.77,5.77,0,0,0-.43-2.19,6,6,0,0,0-1.19-1.86,5.9,5.9,0,0,0-1.83-1.3A5.54,5.54,0,0,0,373,0h-8.37a.33.33,0,0,0-.33.33V19.07a.33.33,0,0,0,.33.33h2.94a.33.33,0,0,0,.33-.33V11.9a.16.16,0,0,1,.14-.16h3.14a.25.25,0,0,1,.21.16h0l3.76,7.32a.33.33,0,0,0,.29.18h3.07a.33.33,0,0,0,.33-.33.32.32,0,0,0-.08-.22Zm-1.19-3.1a2.41,2.41,0,0,1-1.09.24H368a.16.16,0,0,1-.16-.16V3.29a.16.16,0,0,1,.16-.16h4.58a2.34,2.34,0,0,1,1.06.24,2.7,2.7,0,0,1,.83.64,2.74,2.74,0,0,1,.53.91,3.2,3.2,0,0,1,.18,1A3,3,0,0,1,375,7a2.55,2.55,0,0,1-.51.87A2.72,2.72,0,0,1,373.68,8.45Z"/><path class="cls-1" d="M396.71.25a.33.33,0,0,0-.3-.21h-3.06a.33.33,0,0,0-.3.21l-7.32,18.69a.33.33,0,0,0,0,.3.33.33,0,0,0,.27.14h3.06a.32.32,0,0,0,.3-.21L391,15h0a.25.25,0,0,1,.21-.16h7.37a.25.25,0,0,1,.21.16h0l1.54,4.16a.33.33,0,0,0,.31.21h3.07a.33.33,0,0,0,.33-.33.32.32,0,0,0-.06-.19ZM394.77,5h0s.1-.24.19,0h0l2.54,6.77h0s.05.16-.07.16h-5.17c-.12,0-.07-.16-.07-.16Z"/><path class="cls-1" d="M.33,19.45H3.27a.33.33,0,0,0,.33-.33v-8a.16.16,0,0,1,.16-.16h8.7a.33.33,0,0,0,.33-.33V8.2a.33.33,0,0,0-.33-.33H3.76a.16.16,0,0,1-.16-.16V3.35a.16.16,0,0,1,.16-.16h8.69a.33.33,0,0,0,.33-.33V.43A.33.33,0,0,0,12.45.1H.33A.33.33,0,0,0,0,.43V19.12A.33.33,0,0,0,.33,19.45Z"/><path class="cls-1" d="M75.32,19.45h12a.33.33,0,0,0,.33-.33v-2.4a.33.33,0,0,0-.33-.33H78.75a.16.16,0,0,1-.16-.16V.43A.33.33,0,0,0,78.26.1H75.32A.33.33,0,0,0,75,.43V19.12A.33.33,0,0,0,75.32,19.45Z"/><path class="cls-1" d="M37.57.1H25.44a.33.33,0,0,0-.33.33V19.12a.33.33,0,0,0,.33.33H37.57a.33.33,0,0,0,.33-.33v-2.4a.33.33,0,0,0-.33-.33H28.87a.16.16,0,0,1-.16-.16V11.09a.16.16,0,0,1,.16-.16H36a.32.32,0,0,0,.33-.33V8.2A.33.33,0,0,0,36,7.87H28.87a.16.16,0,0,1-.16-.16V3.35a.16.16,0,0,1,.16-.16h8.69a.33.33,0,0,0,.33-.33V.43A.33.33,0,0,0,37.57.1Z"/><path class="cls-1" d="M62.44.1H50.32A.33.33,0,0,0,50,.43V19.12a.33.33,0,0,0,.33.33H62.44a.33.33,0,0,0,.33-.33v-2.4a.33.33,0,0,0-.33-.33H53.75a.16.16,0,0,1-.16-.16V11.09a.16.16,0,0,1,.16-.16h7.17a.32.32,0,0,0,.33-.33V8.2a.33.33,0,0,0-.33-.33H53.75a.16.16,0,0,1-.16-.16V3.35a.16.16,0,0,1,.16-.16h8.69a.33.33,0,0,0,.33-.33V.43A.33.33,0,0,0,62.44.1Z"/><rect class="cls-1" x="152.33" width="3.59" height="19.35" rx="0.33" ry="0.33"/><path class="cls-1" d="M183.65,0h-3.24a.33.33,0,0,0-.28.16l-4.64,7.75c-.09.12-.18,0-.18,0L170.85.16a.33.33,0,0,0-.28-.16h-3.21a.33.33,0,0,0-.28.5l6.57,10.68a.41.41,0,0,1,0,.16V19a.33.33,0,0,0,.33.33H177a.33.33,0,0,0,.33-.33V11.33a.4.4,0,0,1,0-.16L183.93.5a.33.33,0,0,0-.28-.5Z"/><path class="cls-1" d="M208.21,4.57a7.58,7.58,0,0,0-1.69-2.37A8.25,8.25,0,0,0,204,.61a8.16,8.16,0,0,0-6.1,0,8.46,8.46,0,0,0-2.5,1.59,7.47,7.47,0,0,0-1.71,2.37,6.92,6.92,0,0,0-.63,2.91v4.4a6.93,6.93,0,0,0,.63,2.91,7.45,7.45,0,0,0,1.71,2.37,8.41,8.41,0,0,0,2.5,1.59,8.11,8.11,0,0,0,6.1,0,8.21,8.21,0,0,0,2.48-1.59,7.62,7.62,0,0,0,1.69-2.37,6.93,6.93,0,0,0,.63-2.91V7.48A6.92,6.92,0,0,0,208.21,4.57Zm-3,7.52a4,4,0,0,1-.33,1.63,4.22,4.22,0,0,1-.92,1.34,4.48,4.48,0,0,1-1.37.91,4.23,4.23,0,0,1-3.28,0,4.48,4.48,0,0,1-1.37-.91,4.4,4.4,0,0,1-.94-1.34,4,4,0,0,1-.35-1.65V7.3A4,4,0,0,1,197,5.67,4.36,4.36,0,0,1,198,4.31a4.46,4.46,0,0,1,1.37-.91,4.2,4.2,0,0,1,3.28,0,4.47,4.47,0,0,1,1.37.91,4.2,4.2,0,0,1,1.25,3Z"/><path class="cls-1" d="M130.7,7.73h0L138,.56a.33.33,0,0,0,.07-.36.33.33,0,0,0-.3-.2h-3.72a.33.33,0,0,0-.23.09l-8.4,8.18h0c-.16.15-.17,0-.17,0V.33a.33.33,0,0,0-.33-.33H122a.33.33,0,0,0-.33.33V19a.33.33,0,0,0,.33.33h2.94a.33.33,0,0,0,.33-.33V13.09a.34.34,0,0,1,.09-.17l2.67-2.6h0s.17-.15.28,0l6.18,8.89a.33.33,0,0,0,.27.14h3.37a.33.33,0,0,0,.22-.57L130.68,7.89A.14.14,0,0,1,130.7,7.73Z"/></svg>