<svg xmlns="http://www.w3.org/2000/svg" viewBox="0 0 48 48"><defs><style>.cls-1,.cls-2{fill:#1a1a1a;}.cls-2{fill-rule:evenodd;}</style></defs><path class="cls-2" d="M23.81,2.4a9.52,9.52,0,0,0-.87-1.31H22.5V.87A2.36,2.36,0,0,0,21.41.44V.22a7.06,7.06,0,0,0-3.06,0V.44L17,.66V.87H16.6v.22h-.44l-.22.44h-.44l-.66.87-.44.22v.44L14,3.28c-.26.39,0,.49-.44.87v.22a3.15,3.15,0,0,0-2.18,0h-.87A6,6,0,0,0,6.55,9.61l-2,.66v.22a2.34,2.34,0,0,1-1.09.66,2.51,2.51,0,0,1-.66,1.09H2.62v.44H2.4l-.22.87H2v.66H1.75v3.06a.54.54,0,0,1,.22.66H1.75l-.22.65L.88,19c-.34.52-1,3-.66,3.49v1.31H.44V24H1.53v.22l1.31.22,1.31,1.75H5.24s.05.16.44.22c-.08-.81-.55-2.21-.22-3.28h.22a15.09,15.09,0,0,1,.44-1.75h.22V21h.22v-.87H6.34a10.18,10.18,0,0,1,.22-3.71h.22v-.44l.44-.22v-.44l.87-.66.22-.44h.43L9,13.76h.44c.54-.44.48-1.79.88-2.4l1.09-.87.22-.44H12V9.83l1.09-.22V9.39h.66l1.53,2.18v.87h.22v2.18l.66.44v.44l.44.22.22,1.53H17l-.22,2.84c-.16.42-1.08,1.24-.88,2h.22l.22.88h.22c.07.87.15,1.75.22,2.62l2-.22v-.22h.44l.22-.43a4.76,4.76,0,0,1,2.18-.44V24h.22V21.84h-.22v-.66h-.22l-.22-.66.44-.22v-.44h.22a8.45,8.45,0,0,0,0-4.15h-.22l-.22-.87h-.22L20.53,14l-.44-.22V12h-.22V10.92h-.22v-.66h-.22V9.83l-.66-.44c-.35-.5-.42-.94-.87-1.31,0-.68-.11-1.62.22-2l.22-.22.44.66h.44v.22h.87V7l1.75-.22c.65-.77,1.45-.73,1.75-2h.22V3.93H24V3.06h-.22ZM26,6.55l1.31.22V7l2.18-.44V6.33l.66-.44v.22h.22v2h-.22v.44l-.44.22v.44l-.87.66v.66h-.22v.44H28.4l-.22,2.84-.66.44a6.46,6.46,0,0,0-1.31,2.18v2.84c.11.32,1,1.25.87,1.75l-.44.22v.66h-.22c0,.72-.13,1.81.22,2.19s1.18.19,1.75.44v.22h.44v.22h.44l.22.44H30.8v.22h.87a3.13,3.13,0,0,1,.22-2.4V22.5h.22l.44-.87-.44-.22-.22-.87h-.22v-.44h-.22V19h-.22a7,7,0,0,1,.66-3.49h.22v-.44l.66-.44L33,11.79h.22v-.66l.44-.22v-.44h.22l.87-1.09a5.06,5.06,0,0,1,3.71,2.84l.22,1.31c.21.28.81.25,1.09.44l.22.44,1.31,1.09A8.55,8.55,0,0,1,42.15,19c-.08.33-.61,1.42-.44,2h.22l.44,1.31h.22c.48,1.19.12,3,0,4.15a7.51,7.51,0,0,1,1.75-.22c.2-.91.7-1.08,1.09-1.75a8.51,8.51,0,0,1,2.4-.44v-.22h.22c.06-1.84.3-2.41-.44-3.93v-.44H47.4V19L47,18.78v-.44a2.35,2.35,0,0,1-.44-.44h-.22a12.57,12.57,0,0,1,.44-1.75,11.13,11.13,0,0,0-1.09-3.93L45,11.79v-.44l-.44-.44h-.44l-.44-.66h-.44V10c-.47-.25-1.28-.2-1.53-.65V8.3H41.5V7.86h-.22V7.21L40.85,7a5.53,5.53,0,0,0-6.12-2.62C33.66,1.94,31.82.7,29.05,0L26.87.22c-.78.88-1.82.72-2.19,2.18-.56.59-.27,1.41-.22,2.4L26,6.55M7.21,21.41H7C6.64,22,5.74,24.76,6.12,26h.22v.87h.22l.22.22v-.44H7v-.44c.1-.15.29-.14.44-.44H8.52A5.9,5.9,0,0,1,9.39,24c.6-.13,2.08-.52,2.62,0,.89.25.44.44,1.09.87v.66a3.32,3.32,0,0,1,2,.44v.65l.66-.22a4.44,4.44,0,0,0,.22-3.28c-.11-.26-1-1.18-.87-1.53h.22l.22-.66h.22a7.72,7.72,0,0,0,.66-3.28h-.22V16.6h-.22l-.22-.88h-.22v-.44l-.87-.66c-.11-.31.4-.88.22-1.53a4.5,4.5,0,0,0-1.53-2.62v-.22c-.17.08-.73.13-.87.22v.22c-1.27.33-1.5,1.5-2,2.62V14c-.18.28-1.23.45-1.53.65l-.66.88H8.08v.44l-.44.22v.44H7.43v.66H7.21v2.4h.22l.22,1.09L7.21,21Zm34.73,5.68c0-1.7.43-3.3-.22-4.81H41.5v-.44h-.22L41.06,21l-.44-.22.22-1.09h.22a6.61,6.61,0,0,0-.65-3.93h-.22l-.87-1.09h-.44l-.22-.44c-.33-.2-.68.09-.88-.22l-.22-1.75a3.77,3.77,0,0,0-2.18-1.75c-.25-.24,0-.09-.44-.22l-.44.66h-.22l-.44,1.31h-.22v1.09c0,.07-.28.06-.22.44h.22v.87l-.87.66c-1,1.52-1.12,5.34.44,6.33-.25.92-1.66,2.38-1.09,3.93h.22V26h.22l.22.65h.44l.22-.87a7.54,7.54,0,0,1,1.75-.22c.2-.91.7-1.08,1.09-1.75a6,6,0,0,1,2.62.22v.22l.65.44.22,1.09h.87V26c.66.18.75.41.87,1.09Zm-26.43,14,1.75,1.53.66.87c.49.35.94.42,1.31.88h.22c-.13-1-1-1.59-1.53-2.19l-.44-.22V41.5l-.65-.44v-.44l-.44-.22-.22-.66h-.22v-.44h-.22L15.29,38h-.22l-.22-1.31h-.22l-.22-1.75H14.2V33H14q.11-1.86.22-3.71h.22v-.88h.22a2,2,0,0,0-.22-2L14.2,26H12.67v-.65h-.22c-.23-.85-.06-.3-.66-.66v-.22c-1-.55-1.91.08-2.62.44L9,26.21l-1.31.22v.22c-.37.25-.3.13-.44.66-.5.71.73,5.13,1.09,5.9l.22,1.09h.22l.44,1.31h.22V36h.22L10,37.35l.44.22.22.87.44.22.22.65.66.44v.44l2,1.75L14.85,43h.44l.44.66h.44l.22.44a9,9,0,0,0,2.4,1.09c-.18-1.13-.69-.93-1.31-1.53l-1.53-1.75-.66-.44v-.44l-.87-.66V40L14,39.75l-.22-.65h-.22l-.44-1.31h-.22v-.44h-.22L12.23,36H12l-.22-1.31h-.22v-.44h-.22v-.88a16,16,0,0,1-.87-5h.66a21,21,0,0,0,4.37,12.67m14.2,3.49h-.22v.66a8.92,8.92,0,0,0,2.4-1.09l.22-.44h.44l.22-.44h.44l.87-1.09L36.48,40v-.44l.65-.44v-.44l.44-.22V38l.44-.22.22-.87.44-.22v-.44h.22l.22-.87h.22v-.66h.22l.22-.87H40V33.2h.22a16.75,16.75,0,0,0,.87-4.81l.22-1.09h-.22l-.22-.66a4.23,4.23,0,0,0-1.53-.44v-.87H39.1c-.23-.85-.06-.3-.66-.66v-.22c-.94-.51-1.59,0-2.4.22L35.6,26H34.29v.22l-.66.22a5.71,5.71,0,0,1-.22,1.09h.22v.66h.22v1.09h.22v1.31h.22a10.55,10.55,0,0,1-.44,4.37V36h-.22l-.44,2H33v.44h-.22l-.44,1.31-.44.22c-.91,1.38-1.62,2.88-3.06,3.71.13.44,0,.19.22.44s0,0,.22.22l3.5-3.28a20.38,20.38,0,0,0,4.37-12.67h.66A22.51,22.51,0,0,1,33.2,41.28l-3.5,3.28m-8.3-1.09c-1.22,0-1.33.49-1.75,1.31h-.22v.87h-.22L19.44,47l-3.06-.87v-.22l-1.31-.44v-.22l-1.31-.44-.22-.44-.87-.22-.22-.44H12l-.66-.88h-.44L10,41.72,8.08,40v-.44l-.87-.66v-.44l-.44-.22-.22-.65H6.34v-.44l-.44-.22L5.68,36l-.44-.22v-.43H5v-.44H4.81v-.66H4.59l-.22-.88H4.15v-.65a13.12,13.12,0,0,1-1.09-3.71c.44.13.19,0,.44.22L4.59,33.2h.22l.22.87h.22v.66h.22v.44h.22v.44l.44.22.44,1.31.44.22v.44l.44.22.22.66.66.44v.44l1.09.87,2,2.18h.44l.44.66h.44l.22.44.66.22v.22l.87.22.22.44h.44V45h.44v.22l1.09.22v.22h.66v.22l1.31.22v.22h.22v-.44l-2.84-1.53-.22-.44h-.44l-.44-.66h-.44l-1.75-2-1.09-.87V40l-.66-.44V39.1l-.44-.22-.22-.66H10v-.44l-.44-.22-.44-1.31L8.74,36V35.6H8.52v-.66H8.3l-.22-.87H7.86v-.66H7.65V33H7.43l-.88-5.24a4,4,0,0,1-.65-.66c-1.13-.24-1-.43-2.18-.22a7.59,7.59,0,0,0-.87-1.75L2,24.9v-.22H1.09v-.22A2.77,2.77,0,0,0,0,24.68,22.86,22.86,0,0,0,3.06,35.82v.44h.22v.44l.44.44v.44h.22l.22.65.44.22v.44l.87.66V40l.66.44,1.31,1.53h.44l.66.87H9l.44.66h.44l.22.44h.44l.22.44.66.22v.22l1.31.44.22.44h.44v.22h.44v.22h.66v.22h.44v.22h.66v.22h.44V47l1.31.22v.22l2,.22a6.62,6.62,0,0,0,3.49.22v-.22h.44l.44-.66h.22v-.65H24a3.89,3.89,0,0,0-.87-2.62c-.63-.14-1.28-.62-1.75-.22m26.65-19a3,3,0,0,0-1.75.44,2.5,2.5,0,0,0-1.75,2c-.44-.13-.19,0-.44-.22a2.71,2.71,0,0,0-2.18,1.09h-.22l-.22,2.18h-.22v1.53h-.22v.87h-.22V33h-.22v.65a36.71,36.71,0,0,1-3.93,6.77l-1.75,1.53-1.09,1.31h-.44L33,43.9h-.44l-.44.66-.87.22-.22.44h-.44v.22c-.44.25-.53,0-.87.44h-.22v.44c.46-.18,1.12-.49,1.53-.66h.66v-.22L33,45v-.22h.44v-.22h.44v-.22l.87-.22.22-.44h.44l.22-.44H36l.44-.66h.44l.87-1.09,2.19-2V39.1l.87-.66V38l.44-.22.22-.66h.22l.22-.87.44-.22.22-.88a20.86,20.86,0,0,0,2.18-6.11h.44a12.06,12.06,0,0,1-1.09,3.71v.65H43.9v.44h-.22v.66h-.22l-.22.88H43l-.22.87-.44.22-.22.87h-.22l-.22.66-.44.22v.44l-.87.65v.44l-2.18,2L37.13,43H36.7l-.44.66h-.44l-.22.44h-.44l-.22.43-.87.22V45h-.44v.22H33.2v.22l-1.31.44v.22h-.66v.22l-2.18.44V47h-.22l.22-1.53c-.22-.84-.94-1.31-1.31-2l-1.31-.22v.22h-.87v.22h-.44c-.09.05-.2.31-.44.44-.2.89-.77,1.89,0,2.62.68,2.46,6.1.61,7.64,0H33v-.22h.44v-.22h.66v-.22l.87-.22v-.22l.87-.22L36,45l.88-.22.22-.44h.44l.22-.44h.44l.22-.44h.44L39.1,43h.44l.65-.87h.44l.87-1.09L43,39.75v-.44l.66-.44v-.44l.44-.22v-.44l.44-.22.22-.87.44-.22.65-2h.22l.22-.87h.22V33h.22v-.66H47v-.66h.22V31h.22v-.66h.22V29.27h.22c.25-.8,0-2.08.44-2.62a6.77,6.77,0,0,0-.22-2.18m-28.18.65v.22h-.44L19,26H16.82l-1.31,1.09-.87,3.06v3.5h.22q.11,1.2.22,2.4c.87,2.48,2.83,6.4,5,7.43v-.22h.22c0-.34-.58-.51-.65-.66v-.44h.44c.14.53.23.48.44.87.44-.13.19,0,.44-.22h.22c-.38-.64-.52-1.25-.87-2h-.22c-.39-.89-1.34-5-.87-6.55h.22V33h.22V31.89h.22l.22-1.31h.22v-.44h.22l.22-1.09.44-.22.22-.87.44-.22V27.3l.44-.22v-.22l.44-.22v-.44h.22a2.31,2.31,0,0,0,.66-1.09L22.5,24.9v-.22a5.47,5.47,0,0,0-2.62.43M28,43.25l.66.22,1.09-1.31.44-.22V41.5l.65-.44v-.44l.44-.22V40l.44-.22.22-.87h.22l.22-.87h.22v-.66h.22V36.7H33V36h.22v-.88h.22V33.85h.22V29.92h-.22V28.83H33.2c-.07-.44-.15-.87-.22-1.31h-.22c-.75-1.42-1.36-1.76-3.28-1.31l-.65-.87H28.4v-.22c-1.32-.71-2.42-.29-3.71,0,.27.95.69.75,1.09,1.31v.44l.66.44v.44l.44.22v.44l.44.22.22.87h.22l.22.88h.22l.22,1.53c.34,1,1.13,4.24.66,5.9h-.22v1.09h-.22l-.22,1.53h-.22l-.22.87h-.22v.44h-.22c-.24.45,0,.53-.44.87v.22l.66.22c.62-1.1,1.69-1.86,2-3.28h.44c-.32,1.42-1.35,2.18-2,3.28-.25.19,0,0-.22.22"/></svg>