<svg xmlns="http://www.w3.org/2000/svg" viewBox="0 0 179 272"><defs><style>.cls-1,.cls-2{fill:#1a1a1a;}.cls-2{fill-rule:evenodd;}</style></defs><path class="cls-1" d="M158.74,120.36l.44-.09,2.89-.38.34-.09,3.36-.59c.07-.33,1-2,1.09-2.37a5.5,5.5,0,0,0,.44-2.1,2.69,2.69,0,0,0,0-.5c1.63.86,1.9,1,1.9,1.39s-.34,1-1.53,2.6c-.14.18-.2.27-.34.33-.31.15-.34.15-.37.44l3-.47,4.21-.56c.31,0,1.73-.38,2-.38a1.88,1.88,0,0,1,1.53.53A8.22,8.22,0,0,1,179,119.5l0,.15a2.82,2.82,0,0,1-1.19.15l-2.92-.12-5.06.09-1.12.12-2.69.38c-.31,0-1.7.21-2,.27s-1.56.41-1.83.47a3.48,3.48,0,0,1-1.36.33c-.31.06-1.6.47-1.87.53l-3.6.8a6,6,0,0,1-1,.15c-.34,0-1-.92-1.05-1-.31-.15-.34-.24-.24-.5l-.1-.24a3.4,3.4,0,0,0,.75.15l1.63-.27Zm8.12-8.19c.14,0,2.35-.47,2.79-.47.1,0,1,.21,1.12.83a3.32,3.32,0,0,0-1.09.44c-.27.12-1.53.24-1.77.3s-1.43.38-1.5.38a7.91,7.91,0,0,0-2.11.5,12.23,12.23,0,0,1-3.87.56,2.35,2.35,0,0,1-1.05-.33l-.07-.18a17.57,17.57,0,0,0,4.79-1.15,1.44,1.44,0,0,0,.85-1.45c0-1.48-.2-2-.68-2.45s-.65-.65-.71-1a5.51,5.51,0,0,1,1.33-.18c.44,0,2.75.35,2.75,1.09,0,.3-.68,2.34-.68,2.37,0,.35,0,.44-.14.62Zm-7,11.56H160a1,1,0,0,0,.68.21l3.26-1c.65-.21,3.7-.62,4.28-.8a4.48,4.48,0,0,1,1.19-.18c.51,0,.54,0,1.33.59.1.09.82.44.92.53l.51.47c0,.3-.1.35-.75,1.06a9.49,9.49,0,0,0-.31,1.89c0,.15-.1.77-.1.92a1.42,1.42,0,0,1,.1.3l0,2.9c0,.24,0,1.36,0,1.6a13,13,0,0,1-1,1.63,6,6,0,0,1-1.39-2.4c-.1-.27-1.33-.3-1.6-.3a19.63,19.63,0,0,0-4.55.65c-.65.44-.71.5-.68,1.09a.51.51,0,0,1-.44.09l-.17-.15a.83.83,0,0,0-.24-.5,3.92,3.92,0,0,1-.14-1c0-.3.34-2.37.31-2.84l-.14-2.45a2.8,2.8,0,0,0-1.26-2.07Zm1.5-8.4c.07,0,.31.33.34.38s.82.65,1,.77a8.12,8.12,0,0,1,.85,2.28c0,.3-.17.71-.44.71s-1.43-1.48-1.63-3a1.46,1.46,0,0,0-.37-1C161.16,115.45,161.26,115.33,161.39,115.33Zm3,15.08,3.36-.3.71,0c.1-.12.34-.41.34-.53s.17-1.09.17-1.3l0-2.81c0-.06-.1-.33-.1-.38s0-1,0-1.21c-.27-.27-.37-.33-.48-.35a14.85,14.85,0,0,0-3.7.38c-.34.15-1.9.62-2.18.8a2.54,2.54,0,0,1,.17.83c0,.24-.14,1.27-.14,1.39s.07.3.07.35a3.09,3.09,0,0,0,1.22-.38,6.83,6.83,0,0,1,1.53-.47c.14,0,.78.09.92.09s.24.41.24.47-.07.35-.07.41a16.69,16.69,0,0,1-3.4.47c-.07,0-.31-.12-.37-.12a.4.4,0,0,0-.17.06c0,.35-.2,2.6-.34,3Z"/><path class="cls-1" d="M153.44,158.09l0-.06a.39.39,0,0,0,.24.09,2.49,2.49,0,0,0,.82-.38l2-1.6,2.58-2.07a3.16,3.16,0,0,1,.68-.5,1,1,0,0,1-.27.53,7.51,7.51,0,0,0-1.05,1.8c-.2.38-.88,1.48-1.26,2a4.22,4.22,0,0,1-1.6,1.51,4.39,4.39,0,0,1-.58.5.38.38,0,0,1-.14,0c-.2,0-.71-.68-.85-.8a5.84,5.84,0,0,1-.48-.35c0-.06-.07-.38-.1-.44a1.36,1.36,0,0,0-.2-.21Zm.41-7.51c.1.15.14.15.31.18l.14-.06a16.6,16.6,0,0,0,2.62.27,1.25,1.25,0,0,1,1.33,1.3c0,.27-.1.53-.44.53a4.14,4.14,0,0,1-2-.74c-.2-.12-1.19-.59-1.36-.71l-.71-.62Zm1.46-4.73a3.54,3.54,0,0,0,1.8-.15l2.52-.86a4.55,4.55,0,0,0,1.7-.83,1.65,1.65,0,0,1,1.09-.35,8.63,8.63,0,0,1,1.67.86c.41.21.85.41.85.95,0,.21-.82.62-.92.77a9.3,9.3,0,0,0-1.05,3.19l-.1,2.48-.1,1.63.14,2.78v3a23.81,23.81,0,0,1-.27,3.93,2.12,2.12,0,0,1-.75,1.12A9.42,9.42,0,0,1,160,163a12.3,12.3,0,0,1-.85-1.3,3.82,3.82,0,0,0,.48.12,4,4,0,0,0,1.16-.35l.24-.83.24-3,.1-.56.07-2.6.07-.35.24-6.42c0-1.06-.14-1.21-.58-1.63a20.86,20.86,0,0,1-4,1.09c-.71,0-.92-.21-1.87-1.15Zm9.92,10.41a1.33,1.33,0,0,0,.37.09,8.62,8.62,0,0,0,2.89-1.3l2.41-1.54v.06c-1.53,2.1-3.6,4.17-4.83,4.55a4.64,4.64,0,0,1-.65-1l-.37-.62Zm.61-6.74c.14,0,.75.18.85.18,2,.36,2.21.38,2.55.62a1.73,1.73,0,0,1,.71,1.3c0,.33-.37.44-.48.44a7.35,7.35,0,0,1-2.75-1.51c-.1-.06-.44-.44-.54-.47a2.79,2.79,0,0,0-.51-.5A.39.39,0,0,1,165.85,149.52Zm1.56-4.73.71,0,3.19-1.09c.27-.09,1.46-.53,1.7-.59s.65-.21.75-.21,1.29.8,1.5.92a10.72,10.72,0,0,1,1.43.8.56.56,0,0,1,.1.36,11.43,11.43,0,0,1-1.05,1.24,22.41,22.41,0,0,0-.61,2.48l0,2.43c0,.24,0,1.21,0,1.42l0,2.66.07,1,.1,2.6,0,.21.1,2.69c0,.12-.34,1.92-.37,2.1-.24.47-.61,1.21-.71,1.39a.42.42,0,0,1-.17,0c-.37,0-.75-.27-1.67-1-.17-.12-.82-.53-1-.65s-1.26-1.24-1.5-1.42l.48,0a3.59,3.59,0,0,0,1,.18c.71,0,1.43-.47,1.5-.89a10.73,10.73,0,0,0,.31-2.19,3.68,3.68,0,0,1,0-.62l.14-7.1,0-3c0-.21-.1-1.3-.1-1.54s-.14-2.07-.61-2l-2.31.38a7.79,7.79,0,0,1-1.39.15,2.46,2.46,0,0,1-1.53-.56Z"/><path class="cls-1" d="M159,190.41c0,.09-.1.47-.1.53a1.63,1.63,0,0,0,.1.38h.58l4-.89c.31-.06.37-.09.41-.27a.86.86,0,0,0,.37-.71l.34-2.87.14-1.09.07-2.6,0-1.3-.34-3.52-.14-.65-1-2.34-.07-.24c.78.21,4,1.15,4,1.77,0,.15,0,.86,0,1l-.34,2.28a6.29,6.29,0,0,0-.14,1.3,1.91,1.91,0,0,0-.14.86l-.17,2.6-.1.18a1.68,1.68,0,0,1,.07.59,3.79,3.79,0,0,1-.17,1.15c-.07.3-.1,1.86-.17,2.16,0,.09-.17.77-.17.83a.7.7,0,0,0,.14.38c.31,0,2.45-.27,2.65-.27h2.58c.1,0,1.29.15,1.5.15s.48-.18.48-.24l.41-2.78.07-.15.17-2.57c0-.12-.24-.83-.24-1a.39.39,0,0,1,.07-.21l-.1-.18a17,17,0,0,0,2.55,1.24c.2.09.54.24.54.36a16.94,16.94,0,0,1-.51,1.74l-.58,3-.54,2.4c-.07.27-.61,2-.71,2.16-.37.77-.41.83-.58.83s-.44-.53-.54-.83a19.62,19.62,0,0,0-1.16-2.19l-.07-.24a.47.47,0,0,0-.37-.12c-.65,0-2.21.06-2.89.15l-3.4.41-.58.06-3.13.71a27.62,27.62,0,0,0-3.84,1.18c-.31.12-1.8.5-2.11.62a1.89,1.89,0,0,1-.44-1.12c0-.09-.27-.36-.41-.47a7.69,7.69,0,0,1,.68-.5c.58-.06.65-.12,1.19-.62s.48-.47.48-.59.07-.92.07-1.06a6.11,6.11,0,0,0-1.36-3,7.75,7.75,0,0,1-1.33-1.36.68.68,0,0,1-.17-.21,5,5,0,0,0-.2-.5l.2-.06,3.23,1.45a2.53,2.53,0,0,1,.58.18,1.13,1.13,0,0,1,.14.3.62.62,0,0,1,.34.62Z"/><path class="cls-1" d="M6.13,151c.06,0,.66-.47.68-.48a1.6,1.6,0,0,1,.37,0c.1,0,.16,0,.72.39.1.07.62.21.7.27s.29.23.29.34-.06.18-.49.41a4.2,4.2,0,0,0-.56,1.23L7.42,155c0,.13,0,.14,0,.2s.84-.63.9-.63a.13.13,0,0,1,.1.13,3.84,3.84,0,0,1-.74.88l-1.07.91a.47.47,0,0,0-.16.2c-.08,0-.86.57-1,.7a1,1,0,0,1-.53.2c-.08,0-.12,0-.41-.2H4.42l-.18,1.79c0,.13-.19,1.95-.23,2.27-.08.7-.23,2-.25,2.09s-.18.36-.21.43c0,.45,0,.5-.23.5s-.16-.05-.35-.41a2,2,0,0,1-.31-1.14,2.11,2.11,0,0,1,.23-1.09,27.47,27.47,0,0,0,.66-4c0-.36.23-2.43.23-2.7a12.45,12.45,0,0,0-.33-2.5c0-.13-.08-.18-.43-.59a.35.35,0,0,0,0-.14,1.06,1.06,0,0,1,0-.45,4.73,4.73,0,0,1,.41.29.39.39,0,0,0,.21.05,4,4,0,0,0,1.15-.29Zm-1.69,5.83a5.88,5.88,0,0,0,2.08-1,4,4,0,0,0,.19-1.22.67.67,0,0,0,0-.21,1.9,1.9,0,0,0-.49.09c-.37.14-.37.14-.53.14a2.84,2.84,0,0,1-.76-.13.31.31,0,0,0-.25-.14c-.08,0-.1.43-.12.59l-.1,1.48,0,.34Zm.1-4.35.14.21-.1,1.56.1,0A6.61,6.61,0,0,1,6,154.08a1.18,1.18,0,0,1,.51.11c.31,0,.31-.07.35-.38S7,152.67,7,152.4s0-.47-.06-.52-.1-.13-.12-.2-1.91.47-2.28.52Zm6.33,6.94,0,.09c0,.18-.06.93-.06,1.07l-.08,2.11a5.79,5.79,0,0,1-.31,1.22.33.33,0,0,1-.29-.21l-.19-.32,0-1.48c0-.14.1-.81.1-.93s0-.8,0-.93a2.34,2.34,0,0,0-.12-.64H9.81a9,9,0,0,0-1.42.48c-.12.2-.25,1.13-.33,1.31a3.49,3.49,0,0,1-.62,1.13c-.72.63-.8.7-.95.75L6.37,163c.19-.38.76-1.48.84-1.75,0,0,.29-1.16.29-1.22L6,160.36a4.26,4.26,0,0,1-.82-.61c.08,0,.53,0,.62,0s1.62-.39,1.83-.45A1.81,1.81,0,0,0,7.26,158a2.05,2.05,0,0,1,1.11.64c.08.09.12.18.08.41a.4.4,0,0,0,.19.07,5.2,5.2,0,0,0,.58-.18c.06,0,.74-.14.76-.16a3.84,3.84,0,0,0,.08-.86c0-.05,0-.32,0-.38a2.31,2.31,0,0,1,.8.45.74.74,0,0,1,.12.52.33.33,0,0,0,.16.07,1.12,1.12,0,0,0,.37-.14,3,3,0,0,1,.43-.05,1,1,0,0,1,1,.59s0,.05-.06.07-1.75.2-1.87.21Zm-4.56-2c.06,0,.29.07.33.07A14.25,14.25,0,0,0,8.9,157a11.75,11.75,0,0,1,1.71-.55c.16,0,.93.16.93.41s-.12.2-.56.25a3,3,0,0,0-.37.11L9,157.51s-.82.18-1,.18l-1,0a2.82,2.82,0,0,1-.84-.25A.14.14,0,0,1,6.31,157.4Zm7.32-7.26a.93.93,0,0,1,.51-.14.92.92,0,0,1,.82.29c.14.11,1,.41,1.07.54a.53.53,0,0,1,.08.3,1.42,1.42,0,0,1-.23.8,1.22,1.22,0,0,0-.23.59l-.16,1.75,0,.61v2.4l0,.09,0,.63.12,2.06c0,.11,0,.64,0,.88s.06,1,.06,1.13a5.55,5.55,0,0,1-.72,3.13,8,8,0,0,1-1.5-1c-.12-.11-.66-.63-.78-.72v-.07a1,1,0,0,1,.33,0,2.68,2.68,0,0,0,.51.12c.58,0,.88-.91.9-1.34l.08-1.52,0-.16v-1.56c0-.11,0-2.11,0-2.34a6.81,6.81,0,0,0-.06-1.05.58.58,0,0,0-.21,0c-.16,0-2.38.25-2.49.27a1.72,1.72,0,0,0-.95.39c-.6-.18-.58-.89-.58-1.05l.1-1.88a6.93,6.93,0,0,0-.21-1.77.76.76,0,0,1-.16-.52s.16-.05.21-.05.31.07.39.07a2.4,2.4,0,0,0,.72-.25,4.62,4.62,0,0,1,.76-.2Zm-1.79,5.15,1.64-.34a1.37,1.37,0,0,1,.29,0,5.2,5.2,0,0,1,.64.05l0-1.86v-.18l0-1.41c0-.2-.23-.63-.49-.63-.08,0-.74,0-.93.07l-1.69.38c-.1,0-.12.05-.14.11s0,.88,0,1v1a1.29,1.29,0,0,0,.37,0c.93-.39,1-.43,1.15-.43s.74.05.74.23-1,.59-2,.52c0,0-.08-.11-.14-.11s-.16.13-.18.2,0,.84,0,1l0,.66Z"/><path class="cls-1" d="M5.61,170.19l.06-.05a1.75,1.75,0,0,0-.1-.45,1,1,0,0,1,.35-.07,5.14,5.14,0,0,1,1,.5c.53.25.7.32.7.59s-.06.21-.21.41c.16,0,1,.09,1.11.11l1.09.2c.43.13.9.41.9.73a.26.26,0,0,1-.29.23,6,6,0,0,1-.6-.09c-.29-.18-2-.82-2.28-1.07-.1.05-.49.38-.58.43a6.63,6.63,0,0,0-1.09,1.22,13.85,13.85,0,0,1-1.81,1.86c-.12.09-.29.27-.41.38a6.4,6.4,0,0,1-2.28,1.29L0,176.74c.27-.23,1.56-1.18,1.81-1.38a25.32,25.32,0,0,0,3-3.2,12.45,12.45,0,0,0,1-1.73Zm-1.23,6.62a2,2,0,0,0-.06-1c0-.09-.37-.46-.43-.55s.1-.11.19-.11,1.09.45,1.21.45l.29-.11,1.83-.66c.19-.07,1.07-.61,1.13-.61s1.09.61,1.09.79,0,.09-.06.13a1.15,1.15,0,0,0-.37.55L8.57,177a2.66,2.66,0,0,1-.43.72c.06.11.08.13.23.18l.06.07c0,.25-.12.27-.76.57l-.93.25s-1.87.68-2,.79a4.68,4.68,0,0,0-.35.88c0,.05.23.18.27.21.47-.07,2.41-.79,2.8-.91a2.93,2.93,0,0,0,.62-.23c.31-.21.35-.25.49-.25a6,6,0,0,1,.9.47c.27.11.29.12.37.27l-.12.11-.88,1.34c.25.27.27.29.41.36a.7.7,0,0,1,.12.3,1.09,1.09,0,0,1-.58.2l-.8.11-1.67.41-.66.27a1.11,1.11,0,0,1-.12.73.73.73,0,0,1,.06.2c0,.05,0,.07-.06.13a.43.43,0,0,1-.16,0,.68.68,0,0,1-.23-.05c0-.14-.06-.16-.14-.22-.14-.75-.27-1.48-.39-2.24s-.1-.68-.37-.79c-.06,0-.1.32-.14.36s-.72,1.23-.8,1.32l-1,1c-.21.21-.39.39-.6.39a.52.52,0,0,1-.23-.07,11.39,11.39,0,0,1,.92-1.31c0-.07.74-1.22.84-1.41a15,15,0,0,0,.86-2.58Zm2.88,1.29c.14-.05.29-.55.37-.82,0,0,.37-1.48.37-1.54s0-.36,0-.41-.08-.07-.12-.07-2.36.82-2.38.86a3.05,3.05,0,0,0-.16.7s-.12.25-.12.29a.15.15,0,0,0,.14.14s.64-.38.72-.41a2.25,2.25,0,0,1,.47-.16c.27,0,.55.14.55.27a4.17,4.17,0,0,1-1.46.7c-.49,0-.51.09-.64.64,0,.09-.19.5-.19.59s.06.11.14.11C5.49,178.76,6.5,178.38,7.26,178.1Zm.58,3.77c.25-.07.31-.93.31-1.2s0-.41-.14-.41a4.59,4.59,0,0,0-1.77.46l-.41.09a3.43,3.43,0,0,1-.39.18,4.47,4.47,0,0,1,.29,1.5Zm-1.58-8.44A11.57,11.57,0,0,1,7.36,173c.64,0,.82,0,.82.13,0,.46-1.87.75-1.93.75a1.63,1.63,0,0,1-.72-.18C5.67,173.59,5.74,173.57,6.25,173.43ZM13,176.9c-.06,1.09-.18,1.27-.41,1.56-.06.05-.12.36-.19.39l-.08,0c-.39,0-.7-.89-.7-1.14v-.41a4.07,4.07,0,0,0,.21-1.41,2.46,2.46,0,0,0-.27-1.38,2.31,2.31,0,0,1-.31-.32c0-.05-.12-.25-.12-.29.21,0,.25,0,.62.16.1,0,.56.13.64.16.45.27.76.43.72,1.05Zm.62,6.31.84-.07c.58-.39.62-.41.64-.79l.08-1.56,0-.2,0-2.86.06-1.56v-1.61l-.1-1.48c0-.21,0-1.48-.08-1.77s-.06-.75-.1-.88a4.06,4.06,0,0,0-.1-.43,1.3,1.3,0,0,1-.12-.23c0-.05,0-.29,0-.34l.12-.05,0-.05c.23.05,1.15.55,1.36.64s.68.25.68.61a.41.41,0,0,1-.08.25c0,.16-.18.81-.18.95s-.23,1.16-.23,1.18,0,.68,0,.72a.41.41,0,0,0-.08.23l-.06,1.7,0,.29,0,1.95.08,1.56c0,.05,0,.14,0,.16s0,.27,0,.3l.06,1.77,0,.23,0,1.59c0,.09,0,.39,0,.5s-.23.52-.23.59c0,.27-.06.48-.27.48,0,0-1.52-.91-2-1.23s-.62-.46-.66-.7Z"/><path class="cls-1" d="M7.91,205.26l.14,0v-.43l-.23-1.65v-.39l-.19-2c0-.05-.14-.84-.16-.88s-.18-.18-.25-.21l-.06-.2-.29-.21a.25.25,0,0,1,.23-.18c.16,0,1.3.41,1.54.46.62.14.76.18.76.54q0,.08-.06.48l-.19,1.29,0,.2L9,203.58l0,1.29.31-.09,1.69-.64.31-.16,1.6-.66c.21-.09,1.11-.39,1.3-.46l.39-.21a1,1,0,0,0,.16,0,2.85,2.85,0,0,1,.82.07c1.07.48,1.11.66,1.15.95l0,0-.33,0L14.7,204c-.1,0-.49.09-.82.14a6.1,6.1,0,0,0-.82.22l-1.48.46-1.77.63-.78.41c-.06,2.2,1.3,2.93,3.21,2.93a17.48,17.48,0,0,0,1.85-.13.27.27,0,0,0,.19.05c1.64,0,1.85,1.09,1.85,1.23s-.08.2-.23.23-1.52.16-1.71.16a7,7,0,0,1-3.15-.48,4,4,0,0,1-1.81-1.34,4.68,4.68,0,0,1-.95-2l-.08-.2a7.25,7.25,0,0,0-1.6.64c-.68.3-1.32.61-1.4.63a4.85,4.85,0,0,1-.62.34l-1.5.63a7.48,7.48,0,0,1-1-.48c-.06-.18-.27-.29-.37-.36v-.09c-.14-.11-.16-.13-.21-.2a3.15,3.15,0,0,0,.53.18.43.43,0,0,0,.18-.05l3.33-1.29c.12-.05.95-.3,1.09-.38a1.35,1.35,0,0,1,.41-.16l.88-.43Z"/><path class="cls-1" d="M7.91,224.94l.14,0v-.43l-.23-1.65v-.39l-.19-2c0-.05-.14-.84-.16-.88s-.18-.18-.25-.21l-.06-.2-.29-.21a.25.25,0,0,1,.23-.18c.16,0,1.3.41,1.54.46.62.14.76.18.76.54q0,.08-.06.48l-.19,1.29,0,.2L9,223.26l0,1.29.31-.09,1.69-.64.31-.16,1.6-.66c.21-.09,1.11-.39,1.3-.46l.39-.21a1,1,0,0,0,.16,0,2.85,2.85,0,0,1,.82.07c1.07.48,1.11.66,1.15.95l0,0-.33,0-1.67.32c-.1,0-.49.09-.82.14a6.1,6.1,0,0,0-.82.21l-1.48.46-1.77.63-.78.41c-.06,2.2,1.3,2.93,3.21,2.93a17.48,17.48,0,0,0,1.85-.13.27.27,0,0,0,.19.05c1.64,0,1.85,1.09,1.85,1.23s-.08.2-.23.23-1.52.16-1.71.16a7,7,0,0,1-3.15-.48,4,4,0,0,1-1.81-1.34,4.68,4.68,0,0,1-.95-2L8.2,226a7.25,7.25,0,0,0-1.6.64c-.68.3-1.32.61-1.4.63a4.85,4.85,0,0,1-.62.34l-1.5.63a7.48,7.48,0,0,1-1-.48c-.06-.18-.27-.29-.37-.36v-.09c-.14-.11-.16-.13-.21-.2a3.16,3.16,0,0,0,.53.18.43.43,0,0,0,.18-.05L5.55,226c.12-.05.95-.3,1.09-.38a1.35,1.35,0,0,1,.41-.16l.88-.43Z"/><path class="cls-1" d="M1.42,246.83a11.71,11.71,0,0,0,3.43-4.08c0-.13-.25-.66-.25-.79a2.06,2.06,0,0,1,.39.23,14.25,14.25,0,0,1,1.5.68c.18.13.37.32.37.43-.35.29-.9.79-1.17,1a.83.83,0,0,1-.33.3,7,7,0,0,1-1.07,1.13L3,246.7a.77.77,0,0,0-.14,0c-.06.05-.33.21-.39.25-.23.13-1.79.61-2.3.75Zm10.11-5,.33.41,1.21,1.11c.12.11.7.5.8.61s1.4,1,1.71,1.16l1.75.82c.23.11,1.21.54,1.42.64.66.32.86.46.95.59l-.6.07-.66.14-1.73.21a5,5,0,0,1-1.46-.07,5.71,5.71,0,0,1-1.11-1l-1-1.18-1.27-1.72-.06-.09-1.3-1.77a11.37,11.37,0,0,0-1.77-2l0-.11-.08-.11a2.37,2.37,0,0,1,1.73.93Z"/><path class="cls-1" d="M.7,265.42l.37.11.33-.05,2.34-.61c.21-.05,1.36-.3,1.46-.34.25-.27.37-.39.37-.63a7.07,7.07,0,0,0-.27-1.25c-.06-.18-.43-.93-.47-1.09.08,0,.84.36.9.36a1.25,1.25,0,0,0,.27-.05l1.58-.45,1.85-.5.12-.07-.06-1.36c0-.59-.06-.63-.33-.91-.18,0-1,.09-1.13.09l-.76-.05c-.14,0-.18,0-.51.32a2.49,2.49,0,0,1-1,.5s-.21.13-.25.13a.82.82,0,0,0-.14,0c.16-.11.16-.14.14-.23a12.22,12.22,0,0,0,.86-1.45l.41-1.38c0-.07.1-.66-.14-.91l0-.29a.18.18,0,0,1,.23-.09c.1.09.12.09.33.13s1.42.48,1.42.73A8,8,0,0,1,8,257.46c-.37.54-.41.59-.58.8a.71.71,0,0,0,.23,0,6.66,6.66,0,0,0,2.26-.81,1.55,1.55,0,0,0,.72-.29,2.08,2.08,0,0,1,.55-.3c.08,0,.35-.11.41-.11s1.09.39,1.11.61a5,5,0,0,1-1.36.63,4,4,0,0,0-1.21.36c.14.23.39.64.43.7a.6.6,0,0,0-.06.18c0,.07,0,1-.06,1.23a.58.58,0,0,0,.16.05,6,6,0,0,0,.7-.23,4.43,4.43,0,0,1,1.13-.13c.25,0,.78.38.78.59s-.08.18-.16.25c-.41.11-2.57.25-2.59.5l-.12,1.91c0,.09.14.14.25.13l2.36-.36c.51-.07,2.63-.32,2.86-.32s1.48.79,1.48,1.22a.1.1,0,0,1-.1.11.67.67,0,0,1-.18,0c-.06,0-.23.07-.27.07H16l-3-.13-.93,0a3.75,3.75,0,0,0-1.6.16l-.1.3.1,2.38-.06,2.65A7.74,7.74,0,0,1,9.79,272l-.06-.14a2.87,2.87,0,0,1-.37-1.14l-.06-1.43,0-.38.14-2.58a9.54,9.54,0,0,0,0-1.9,3,3,0,0,0-.41,0l-.78.16a.5.5,0,0,0-.23,0l-2,.54-.16,0-2,.66a13.92,13.92,0,0,1-1.79.43c-.27,0-.33,0-.95-.38-.25-.13-.29-.14-.37-.32a.61.61,0,0,0-.08-.16Zm5.86-1.16.33-.05,1.36-.27a5.85,5.85,0,0,0,1.21-.23l0-.18v-1.84a9.53,9.53,0,0,0-2,.45c-.14,0-.76,0-.88.07a.78.78,0,0,0-.27.09,7.19,7.19,0,0,0,.1,1.32,6.24,6.24,0,0,0,0,.66Z"/><path class="cls-1" d="M68.65,125.34c1,.44,3,.54,3.91,1.22A4.46,4.46,0,0,1,73.78,129a7.38,7.38,0,0,1-.29,1.45c-2.86,0-6.82-4.6-7.23-5.9A6.87,6.87,0,0,1,68.65,125.34Zm10.71-6.48a5.42,5.42,0,0,1-.76.85,14.5,14.5,0,0,1-4.66-2.15c-.35-.28-1.75-1.46-2-1.74s-.87-1.19-1-1.35-.12-.87.35-.83,3.61.9,3.79,1c1.63.43,3.21,1,3.85,2.39a8.84,8.84,0,0,1,.35,1.3A1.6,1.6,0,0,1,79.36,118.85Z"/><path class="cls-1" d="M89.68,239.76,84,241l-4.26.83c-1,.22-5.77,1.31-6.76,1.44-.47.06-2.39.16-2.91.17a4.45,4.45,0,0,1-1.34.2,13.64,13.64,0,0,1-2-1.13,6.09,6.09,0,0,1-1.17-1.56c.23,0,.41,0,.58,0s.87.12,1,.13c.35,0,3.61-.42,4.2-.53s3-.11,3.5-.23,2.74-.54,3.21-.61l4.61-.59c.41-.07,3-.46,3.28-.84.58-.66.28-3,.33-4.55a19,19,0,0,0-3,.26,14.45,14.45,0,0,1-2.56,0,6.52,6.52,0,0,1-3.21-1.07c.47-.17,2.86-.23,3.32-.29a39.82,39.82,0,0,0,5.48-1.24v-2.3l.06-4.1c0-.56-.35-2.87-.29-3.32a4.09,4.09,0,0,1-1-2.11,2.74,2.74,0,0,1,.64-.05c1,.08,4.37,1.82,5.13,2.13.17.17.64.51.64,1.83,0,.1-1.4,3.64-1.57,4.34-.17.95.06,1.55-.06,2.4.87-.08,1-.22,3-1.13a2.2,2.2,0,0,1,1.11-.11,3.86,3.86,0,0,1,2.22,1c.23,1,0,1-1.22,1.42a5.43,5.43,0,0,0-.7.45c-.23.08-4.37,1-4.55,1.16s-.06.1-.12.29l0,4.21v.36l1.11-.06,5.22-.7c.52-.11,3-.47,3.56-.48a32.31,32.31,0,0,1,5.48-.27,6,6,0,0,1,3.09.86c.29.18,2.1,1.64,2.1,2s-1,.94-1.92.86c-.18,0-1.22-.25-1.4-.26l-2.16-.17-5.42-.28a37.76,37.76,0,0,0-6.29.21C92.59,239.59,89.68,239.76,89.68,239.76Zm4.49,1.53a.76.76,0,0,1,.52.7c0,.2-.23,1.35-.23,1.6,0,.1.06.61.12,1.23a18.24,18.24,0,0,1,3.26-.25c1.69.13,3,2,2.8,2.71a10.21,10.21,0,0,1-2.39.27c-.12,0-1.11-.19-1.28-.2s-2.16.23-2.51.21l-.06,1.62.18,4.72.29,4.4c.06.51-.12,3.24-.12,3.89,0,.1.12,1.23.12,1.48a9.66,9.66,0,0,1-.93,3.88c-.06.15-.06.35-.12.6a3.12,3.12,0,0,1-.47.22c-.06.1-.12.14-.12.24-.64.05-2.8-.93-4.37-2.53a4.21,4.21,0,0,0-1.17-.8,5.22,5.22,0,0,0-1.57-1.09,7.37,7.37,0,0,1-.58-.6c.52.09,1.34.26,2,.31a9.88,9.88,0,0,0,2.68-.19,4.63,4.63,0,0,0,1.4-2.83l.35-5.9-.17-7.27A8.64,8.64,0,0,0,89,248l-4.37.77-4,1a17.89,17.89,0,0,0,2.8,2c1.63.94,2.16,1.24,2.16,3.82a2.93,2.93,0,0,1-.29,1.75c-.76,0-1.22,0-2.39-1.61-.53-.7-2.51-3.85-2.8-5.8-.35,0-2,0-2.33,0a3.41,3.41,0,0,1-2.57-1.83,4.23,4.23,0,0,1,1.46.07l.87-.08,7.52-1.68,4.84-.93,1.81-.31c.06-.5-.23-4.36-.29-4.72Z"/><path class="cls-1" d="M69.37,144.79a1.36,1.36,0,0,0,.64.41l.82-.59,3.26-3.85,1.57-2.51.52-.06a17.86,17.86,0,0,1-.82,3.43c-.29.79-1,4.38-1.34,5.07l-1,1.94c-.12.19-.41,1-.52,1.18-.29.28-.76.8-.82.85-.64,0-.82-.12-1-.74-2-2.5-2.27-2.77-2.27-3.73a1.82,1.82,0,0,1,.52-1.17Z"/><path class="cls-1" d="M88.21,128.09a30.57,30.57,0,0,0,4-.94c.63-.52.49-2.26.42-2.82-.41,0-2.32.43-2.67.46a16.52,16.52,0,0,1-2.21.13,2.62,2.62,0,0,1-2-1.07,1.57,1.57,0,0,1,1.16,0l.52-.17,4.87-1.21a2.71,2.71,0,0,0,.32-1.52c0-.25-.06-1.81-.06-2.16a1,1,0,0,0-.35-.12c-.18,0-3.08.45-3.66.42s-3-.22-3-.88l1.81-.1c1.8-.41,2-.45,2.5-.52a22.66,22.66,0,0,0,2.55-.67,7.1,7.1,0,0,0,.09-1.16c0-.41-.23-2.44-.24-2.7s0-1.88-.11-2.13-.68-1.76-.69-2.06l-.3-.47.28-.34.47,0c1.12.47,2.29.84,3.47,1.21.82.25,2.23.63,2.25,1.6a1.42,1.42,0,0,1-.22.65c-.86.41-1,2.07-1,2.88,0,.05-.21.8-.21,1a.56.56,0,0,0,.18.36c.35,0,1.56-.37,1.86-.4a11.24,11.24,0,0,1,2-.14c.76,0,2.81.36,2.82,1.12,0,.51-2.66,1-3.3,1.08s-3.62.35-3.84.69a8.17,8.17,0,0,0-.2,3.38c.46-.08,2.32-.53,2.73-.61a7.47,7.47,0,0,1,1.22-.08,8.44,8.44,0,0,1,2.24,1c.13.31.07.66-.74.82l-4.47,1c-.93.2-.93.19-.92.35l0,1c0,.25,0,1.23,0,1.53a.71.71,0,0,0,.12.36l.29,0,4.88-.54a47.6,47.6,0,0,1,8-.46,3.6,3.6,0,0,1,2.59,1,6.29,6.29,0,0,1,.89.66c0,.05.06.1.06.21,0,.41-1.44.73-2.37.68l-.88,0c-.52.07-2.92-.27-3.39-.29s-3.15,0-3.32,0l-1.11-.11-6.75.63-1.39.23-4.87,1-4.17,1a9.46,9.46,0,0,1-4.06.89c-1.4-.08-1.64-.4-2.49-1.61A16,16,0,0,0,80,130Z"/><path class="cls-1" d="M88.67,132.73a1,1,0,0,0,1,.36l5.45-1.31c.64-.17,3.43-.46,4.36-.56.12,0,.58-.22.7-.21a27.49,27.49,0,0,1,3.06,1.29,1,1,0,0,1,.6.59c.18.16.53.38.54.64a14.66,14.66,0,0,1-1,1.36,9.3,9.3,0,0,0-.66,1.63l.24,5.33.08,1.07.32,6.24c0,.1.13.56.13.67s-.09,1-.09,1.16.13.72.14.82-.28,3.17-1.6,3.91v.2l-.34.39a3.2,3.2,0,0,1-.65-.59l-.47-.28c-.78-.9-2.09-2.24-2.82-3.2-.42-.53-.48-.58-1-1.12l.05-.3c-.24-.27-.3-.37-.31-.62l.82,0c.12,0,.88.4,1,.41a6.32,6.32,0,0,0,1.1-.14l.05-.2.23-.19H99.4l.34-.39.38-1.24-.16-6.84-.2-3.66c0-.66-.27-4.12-.33-4.32a1,1,0,0,0-1.07-.87c-1.93-.11-7.26,1.36-7.84,1.48a10.27,10.27,0,0,0-.27,3.53,5.81,5.81,0,0,0,2.38-.42,23.8,23.8,0,0,1,2.55-.72,5,5,0,0,1,1.53.44c-.31,1.5-3.53,1-5,1.39a8.39,8.39,0,0,0-1.45.53,25.74,25.74,0,0,0,0,3,13.91,13.91,0,0,0,3.2-.53,8.43,8.43,0,0,1,2.85-.35,2.57,2.57,0,0,1,1.76.66c-.39.74-1.38.73-3.65.76-.41,0-4.13.43-4.24.72-.36,1.9-.59,4.63-.59,4.73s.13.51.13.62a1.29,1.29,0,0,1-.22.49,30.23,30.23,0,0,1-1.29,4.79l-.53-.18-.49-.79c-.07-.51-.13-.56-.37-.73,0-.2-.26-1-.26-1.18v-.35c0-.15.09-1,.09-1.16l.89-4.2a23.37,23.37,0,0,0,.6-4.07l0-4.1a26.59,26.59,0,0,0,0-3,3.61,3.61,0,0,1-.2-1.18Z"/><path class="cls-1" d="M95.65,179.11a68.52,68.52,0,0,0-5.37,5.66c-.14.12.49,0,.5,0,.57-.23,1.15-.5,1.37-.62l5.8-3.08,3.89-2.31c.17-.09,1-.84,1.22-.93,1.34-.51,1.51-.55,1.51-1.21,0-1-1.12-1.45-2.41-1.84-1.64-1.28-1.82-1.45-2.75-1.51-.17.24-.23.29-.4.33,0,0,.54,1.71.54,1.86s-.69.71-.81.8a28.07,28.07,0,0,1-3.07,2.82Z"/><path class="cls-1" d="M83,184.63c.35-.08,1.11-.17,1.1-.78a1.39,1.39,0,0,0-.59-1c-.29-.17-2-.5-2.34-.67s-1.64-.93-1.82-.94c-1.17-.08-2,1.07-2.44,1.5-.06.1-2.09,1-2.5,1.19l-4,1.77a5.45,5.45,0,0,0-1.45.5c-.35,0-1.8.33-2,.31s-1.28-.19-1.52-.26l.06.21-.41.28a5.43,5.43,0,0,0,3,1.58c1.69.12,7.87-1.85,9-2.42a5.43,5.43,0,0,1,1.45-.61c.12.21.3.38.3.53a13.15,13.15,0,0,0-.45,1.34c-.23.29-1.72,3-1.9,3.31l-2.36,3.63c-.23.34-2.6,2.8-2.95,3.08l-3.24,3v.25l-1.28.77a21.63,21.63,0,0,1,2.09-.56c.11-.14.35-.43.52-.47a2.47,2.47,0,0,0,1.1-.48,3.82,3.82,0,0,0,1.91-1c1-.28,1.28-.52,3.53-2.48a9.73,9.73,0,0,0,2.66-2.75l.69-.81c.17-.6,1.55-3.23,1.83-3.87l1.77-3.83Z"/><path class="cls-1" d="M113.9,198c-.7-.2-4.79-1.3-5.49-1.61l-3.33-1.35c-.64-.25-3.8-1.34-4.09-1.46l-4.39-2.24-.59-.24-4.33-2.44a10.21,10.21,0,0,1-1.35-.86c-.53-.54-.35-.43-.76-.72,0-.43,0-.73,0-1h0l-.08-2.59a3.7,3.7,0,0,1,0-.38c0-.1,0-1.3,0-1.78,0-.3.22-1.76.21-2.11l.41-6.81a5.7,5.7,0,0,1,.4-1.49,4.19,4.19,0,0,0,.45-1.54c0-1.32-3.7-3.1-5-3.19-.23,0-1.11,0-1.4.05a2.63,2.63,0,0,0,1.36,2.53c.12.82.5,3.48.56,4.35l.27,3.87.22,4.78.15,4.32c0,.25,0,1.34,0,1.59,0,.41,0,2.39,0,2.84l0,4.38,0,2.15-.39,3.56c-.38,2.86-2.48,2.91-5.28,2.82-.11.35.83,1.28,1.18,1.5l.59.9c.29.12.35.18.94.78a9.58,9.58,0,0,0,3.7,2.65c.7,0,1.82-4.94,1.75-6.31v-5.65l0-4.19c0-.15-.07-1.31-.07-1.51,0-.41-.14-2.29-.14-2.75a8.2,8.2,0,0,1,2.23,1.37l4.29,3.7,4.17,3.29c1.23,1,4,3.13,6,3.27A68.6,68.6,0,0,0,117,199.07C116.59,198.83,114.43,198.22,113.9,198Z"/><path class="cls-2" d="M90.54,3.38a13.41,13.41,0,0,0-1.23-1.85h-.62V1.23A3.32,3.32,0,0,0,87.15.61V.31c-.6-.38-3.59-.25-4.31,0V.61L81,.92v.31h-.62v.31h-.62l-.31.62h-.61l-.92,1.23-.62.31v.61l-.62.31c-.36.55,0,.69-.62,1.23v.31a4.44,4.44,0,0,0-3.08,0H71.77c-2.65,1.05-5.49,3.69-5.54,7.39l-2.77.92v.31a3.29,3.29,0,0,1-1.54.92A3.54,3.54,0,0,1,61,17.23h-.31v.62h-.31l-.31,1.23h-.31V20h-.31v4.31a.76.76,0,0,1,.31.92h-.31l-.31.92-.92.62c-.48.73-1.47,4.26-.92,4.92v1.85h.31v.31h1.54v.31l1.85.31,1.85,2.46h1.54s.07.22.62.31c-.11-1.14-.78-3.12-.31-4.62H65a21.26,21.26,0,0,1,.61-2.46h.31v-.61h.31V28.31h-.31a14.34,14.34,0,0,1,.31-5.23h.31v-.61l.62-.31v-.61l1.23-.92.31-.61h.61l.31-.62h.61c.76-.61.67-2.52,1.23-3.38L73,14.77l.31-.61h.62v-.31l1.54-.31v-.31h.92l2.15,3.08v1.23h.31v3.08l.92.62v.62l.62.31.31,2.16H81c-.1,1.33-.21,2.66-.31,4-.23.59-1.52,1.75-1.23,2.77h.31l.31,1.23h.31c.1,1.23.2,2.46.31,3.69l2.77-.31v-.31h.62l.31-.61a6.7,6.7,0,0,1,3.08-.62v-.31h.31V30.77h-.31v-.92h-.31l-.31-.92.61-.31V28h.31a11.9,11.9,0,0,0,0-5.85h-.31l-.31-1.23h-.31l-.92-1.23-.62-.31V16.92H85V15.38h-.31v-.92h-.31v-.62l-.92-.61c-.49-.7-.59-1.32-1.23-1.85,0-1-.15-2.28.31-2.77l.31-.31.61.92h.62v.31h1.23v.31l2.46-.31c.91-1.08,2-1,2.46-2.77h.31V5.54h.31V4.31h-.31Zm3.08,5.85,1.85.31v.31l3.08-.62V8.92l.93-.62v.31h.31v2.77h-.31V12l-.62.31v.61l-1.23.92v.92h-.31v.62H97q-.15,2-.31,4l-.92.62a9.1,9.1,0,0,0-1.85,3.07v4c.16.45,1.43,1.77,1.23,2.46l-.62.31v.92h-.31c0,1-.18,2.55.31,3.08s1.67.27,2.46.62v.31h.62v.31h.61l.31.62h1.85V36h1.23a4.41,4.41,0,0,1,.31-3.39v-.92h.31l.62-1.23-.62-.31-.31-1.23h-.31v-.61h-.31V26.77H101c-.38-1.32.54-4.24.92-4.92h.31v-.62l.92-.62q.15-2,.31-4h.31v-.92l.61-.31v-.62h.31l1.23-1.54a7.13,7.13,0,0,1,5.23,4c.11.62.21,1.23.31,1.85.29.4,1.14.35,1.54.62l.31.61,1.85,1.54c.38.57,1.48,3.92,1.23,4.92-.11.47-.87,2-.61,2.77h.31l.61,1.85H117c.67,1.68.17,4.18,0,5.84a10.58,10.58,0,0,1,2.46-.31c.29-1.28,1-1.52,1.54-2.46a12,12,0,0,1,3.38-.62v-.31h.31c.08-2.6.43-3.39-.61-5.54v-.61h-.31v-.61l-.62-.31v-.62a3.31,3.31,0,0,1-.62-.61h-.31a17.71,17.71,0,0,1,.61-2.46c.22-1-1.15-4.95-1.54-5.54l-.92-.62V16l-.61-.61h-.62l-.61-.92h-.61v-.31c-.66-.36-1.81-.28-2.16-.92V11.69h-.31v-.62h-.31v-.92l-.62-.31a7.79,7.79,0,0,0-8.62-3.69c-1.51-3.43-4.09-5.17-8-6.15L94.85.31c-1.09,1.24-2.57,1-3.08,3.08-.79.83-.38,2-.31,3.39l2.15,2.46M67.15,30.15h-.31c-.49.91-1.76,4.73-1.23,6.46h.31v1.23h.31l.31.31v-.62h.31v-.61c.14-.21.41-.2.62-.62H69a8.31,8.31,0,0,1,1.23-2.46c.84-.18,2.93-.73,3.69,0,1.25.36.62.62,1.54,1.23V36a4.68,4.68,0,0,1,2.77.61v.92l.92-.31a6.26,6.26,0,0,0,.31-4.62c-.16-.37-1.36-1.66-1.23-2.15h.31l.31-.92h.31c.32-.59,1.21-3.56.92-4.61h-.31V23.38h-.31l-.31-1.23h-.31v-.61l-1.23-.92c-.15-.44.56-1.25.31-2.15-.39-1.36-1-3-2.15-3.69v-.31c-.23.12-1,.18-1.23.31v.31c-1.79.46-2.11,2.11-2.77,3.69v.92c-.26.39-1.73.64-2.15.92l-.92,1.23h-.31v.62l-.61.31v.62h-.31v.92h-.31v3.38h.31l.31,1.54-.62.31Zm48.92,8c.07-2.4.61-4.66-.31-6.77h-.31v-.62h-.31l-.31-1.23-.61-.31.31-1.54h.31c.5-1.64-.41-4.77-.92-5.54h-.31l-1.23-1.54h-.61l-.31-.61c-.47-.28-1,.13-1.23-.31l-.31-2.46a5.31,5.31,0,0,0-3.08-2.46c-.35-.34,0-.13-.62-.31l-.61.92h-.31l-.61,1.85h-.31v1.54c0,.1-.4.08-.31.61h.31v1.23l-1.23.92c-1.42,2.14-1.58,7.53.62,8.92-.35,1.29-2.34,3.35-1.54,5.54h.31v.61h.31l.31.92h.62l.31-1.23a10.62,10.62,0,0,1,2.46-.31c.29-1.29,1-1.52,1.54-2.46,1.24,0,2.9-.19,3.69.31v.31l.92.62L113,36.3h1.23v.31c.93.25,1.06.57,1.23,1.54ZM78.85,57.84,81.31,60l.92,1.23c.69.5,1.33.59,1.85,1.23h.31c-.19-1.34-1.37-2.24-2.15-3.08l-.62-.31v-.62l-.92-.61v-.61l-.62-.31L79.77,56h-.31v-.61h-.31l-.62-1.85h-.31l-.31-1.85h-.31l-.31-2.46H77V46.46h-.31q.15-2.62.31-5.23h.31V40h.31a2.83,2.83,0,0,0-.31-2.77L77,36.61H74.85v-.92h-.31c-.32-1.19-.09-.42-.92-.92v-.31c-1.41-.77-2.68.11-3.69.62l-.31,1.85-1.85.31v.31c-.52.35-.43.19-.62.93-.7,1,1,7.22,1.54,8.31L69,48.31h.31l.62,1.85h.31v.62h.31l.61,1.85.62.31.31,1.23.62.31.31.92.92.61v.61l2.77,2.46,1.23,1.54h.61l.62.92h.61l.31.62a12.74,12.74,0,0,0,3.38,1.54c-.25-1.59-1-1.31-1.85-2.15l-2.15-2.46-.92-.62v-.61l-1.23-.92v-.61L76.69,56l-.31-.92h-.31l-.61-1.85h-.31v-.61h-.31l-.62-1.85h-.31l-.31-1.85h-.31v-.61H73V47.07A22.59,22.59,0,0,1,71.77,40h.92a29.51,29.51,0,0,0,6.15,17.85m20,4.92h-.31v.92a12.57,12.57,0,0,0,3.39-1.54l.31-.62h.62l.31-.62h.62L105,59.38l3.39-3.08v-.62l.92-.61v-.61l.62-.31v-.62l.61-.31.31-1.23.62-.31v-.62h.31l.31-1.23h.31v-.92h.31l.31-1.23h.31v-.92h.31A23.6,23.6,0,0,0,114.84,40l.31-1.54h-.31l-.31-.93a6,6,0,0,0-2.15-.61V35.69h-.31c-.33-1.19-.09-.42-.92-.92v-.31c-1.33-.73-2.24,0-3.38.31l-.61,1.84h-1.85v.31l-.92.31a8,8,0,0,1-.31,1.54h.31v.92h.31v1.54H105v1.85h.31c.48,1.66-.28,5-.61,6.15v1.54h-.31l-.61,2.77h-.31v.62h-.31L102.54,56l-.61.31c-1.28,1.94-2.29,4.05-4.31,5.23.19.61,0,.26.31.62s0,0,.31.31l4.92-4.62c3.22-4.46,6.28-10.11,6.15-17.85h.92a31.7,31.7,0,0,1-6.46,18.15l-4.92,4.62M87.15,61.23c-1.71.06-1.87.69-2.46,1.85h-.31v1.23h-.31l.31,1.84-4.31-1.23v-.31L78.23,64v-.31l-1.85-.61-.31-.61-1.23-.31-.31-.62h-.62L73,60.3h-.62l-1.23-1.54-2.77-2.46v-.62l-1.23-.92v-.61l-.62-.31-.31-.92h-.31V52.3L65.31,52,65,50.77l-.62-.31v-.61h-.31v-.62h-.31v-.92h-.31l-.31-1.23h-.31v-.92a18.48,18.48,0,0,1-1.54-5.23c.61.18.26,0,.62.31l1.54,5.54h.31L64.08,48h.31v.92h.31v.61H65v.62l.61.31.61,1.85.62.31v.61l.62.31.31.92.92.61v.61l1.54,1.23L73,60h.62l.61.92h.62l.31.62.92.31v.31l1.23.31.31.61h.62v.31h.61v.31l1.54.31v.31h.92v.3l1.85.31v.31h.31v-.62l-4-2.15-.31-.62h-.62l-.61-.92h-.62l-2.46-2.77-1.54-1.23v-.61l-.92-.62v-.61l-.62-.31-.31-.92h-.31v-.61l-.61-.31-.62-1.85-.62-.31v-.62H69v-.92h-.31L68.38,48h-.31v-.92h-.31v-.61h-.31l-1.23-7.39a5.65,5.65,0,0,1-.92-.92c-1.59-.33-1.42-.61-3.08-.31A10.69,10.69,0,0,0,61,35.38l-1.23-.3v-.31H58.54v-.31a3.9,3.9,0,0,0-1.54.31,32.21,32.21,0,0,0,4.31,15.69v.62h.31v.62l.62.61v.62h.31l.31.92.62.31v.61l1.23.92v.62l.92.61,1.85,2.15h.61L69,60.3h.62l.61.92h.62l.31.61h.62l.31.62.92.3v.31l1.85.61.31.62h.62v.3h.62v.31h.92v.31h.62v.31h.92v.31h.61v.31l1.85.31v.31l2.77.3c1.2.36,3.76.83,4.92.31v-.31h.62l.62-.92h.31v-.92h.31c0-2.18-.51-2.38-1.23-3.69-.89-.2-1.8-.88-2.46-.31m37.54-26.77a4.23,4.23,0,0,0-2.46.62,3.52,3.52,0,0,0-2.46,2.77c-.61-.18-.27,0-.62-.31a3.81,3.81,0,0,0-3.07,1.54h-.31l-.31,3.08h-.31V44.3h-.31v1.23h-.31v.92h-.31v.92a51.72,51.72,0,0,1-5.54,9.54l-2.46,2.15-1.54,1.85h-.62l-.61.92h-.62l-.62.92-1.23.31-.31.61h-.61V64c-.62.35-.75.05-1.23.61h-.31v.62c.65-.26,1.58-.69,2.15-.92h.92V64l1.85-.61v-.31h.61v-.31h.62v-.3l1.23-.31.31-.62h.62l.31-.62h.61l.62-.92H109l1.23-1.54,3.08-2.77v-.61l1.23-.92v-.62l.62-.31.31-.92h.31l.31-1.23.61-.31.31-1.23a29.39,29.39,0,0,0,3.08-8.61h.62a17,17,0,0,1-1.54,5.23v.92h-.31v.62h-.31v.92h-.31l-.31,1.23h-.31l-.31,1.23-.62.31c-.1.41-.2.82-.31,1.23h-.3l-.31.92-.61.31v.62l-1.23.92V56l-3.08,2.77-1.54,1.85h-.61l-.62.92h-.61l-.31.62h-.62l-.31.61-1.23.31v.31h-.61v.31h-.61V64l-1.85.61v.31H101v.31l-3.08.61v.31h-.31L97.92,64c-.31-1.18-1.33-1.84-1.85-2.77l-1.85-.31v.31H93v.31h-.61c-.13.08-.28.43-.62.62-.28,1.25-1.09,2.66,0,3.69,1,3.46,8.6.86,10.77,0h.92v-.31h.61v-.31H105v-.31l1.23-.31v-.3l1.23-.31.31-.61,1.23-.31.31-.61h.62l.31-.62h.62l.31-.61h.62l.31-.61h.62l.92-1.23h.62l1.23-1.54L117.61,56v-.61l.92-.62v-.61l.61-.31v-.61l.62-.31.31-1.23.62-.31.92-2.77h.31l.31-1.23h.31v-.92h.31v-.92h.31v-.92h.31v-.92h.31v-.92h.31V41.23h.31c.35-1.12,0-2.93.62-3.7a9.54,9.54,0,0,0-.31-3.07M85,35.38v.31h-.62l-.61.92H80.69l-1.85,1.54-1.23,4.31v4.92h.31q.15,1.69.31,3.39c1.23,3.5,4,9,7.07,10.46v-.31h.31c0-.47-.82-.72-.92-.92v-.61h.61c.19.75.33.68.62,1.23.61-.19.26,0,.61-.31h.31c-.53-.9-.74-1.76-1.23-2.77h-.31c-.55-1.26-1.89-7.08-1.23-9.23h.31V46.46h.31V44.92H85l.31-1.84h.31v-.62h.31l.31-1.54.62-.31.31-1.23.62-.31v-.61l.61-.31v-.31l.62-.31v-.61h.31a3.25,3.25,0,0,0,.92-1.54l-1.54-.3v-.31a7.7,7.7,0,0,0-3.69.61M96.38,60.92l.92.31,1.54-1.85.62-.31v-.62l.92-.61v-.61l.62-.31v-.61l.61-.31.31-1.23h.31l.31-1.23h.31v-.92h.31v-.92h.31v-.92h.31V49.53h.31V47.69h.31V42.15h-.31V40.61h-.31c-.11-.61-.21-1.23-.31-1.85h-.31c-1.05-2-1.92-2.49-4.62-1.84l-.92-1.23H97v-.31c-1.86-1-3.41-.4-5.23,0,.38,1.34,1,1.05,1.54,1.85v.62l.92.62v.61l.62.31V40l.61.31.31,1.23h.31l.31,1.23h.31L97,44.92c.47,1.4,1.59,6,.92,8.31h-.31v1.54h-.31L97,56.92h-.31l-.31,1.23h-.31v.62h-.31c-.34.63-.05.75-.62,1.23v.31l.92.31c.87-1.55,2.38-2.62,2.77-4.62h.62c-.45,2-1.9,3.07-2.77,4.62-.35.26,0,0-.31.31"/></svg>