<svg xmlns="http://www.w3.org/2000/svg" viewBox="0 0 276 48"><defs><style>.cls-1,.cls-2{fill:#1a1a1a;}.cls-2{fill-rule:evenodd;}</style></defs><path class="cls-1" d="M76,22.59l.31-.06,2-.27.24-.06,2.34-.41c0-.23.66-1.38.76-1.64a3.82,3.82,0,0,0,.31-1.46,1.87,1.87,0,0,0,0-.35c1.13.6,1.32.7,1.32,1s-.24.7-1.06,1.81c-.09.12-.14.19-.24.23s-.24.1-.26.31l2.08-.33,2.93-.39c.21,0,1.2-.27,1.39-.27a1.3,1.3,0,0,1,1.06.37,5.71,5.71,0,0,1,.87,1l0,.1a2,2,0,0,1-.83.1l-2-.08-3.52.06-.78.08L81,22.53c-.21,0-1.18.14-1.37.19s-1.09.29-1.27.33a2.42,2.42,0,0,1-.94.23c-.21,0-1.11.33-1.3.37l-2.5.55a4.19,4.19,0,0,1-.66.1c-.24,0-.71-.64-.73-.68-.21-.1-.24-.16-.17-.35L72,23.1a2.36,2.36,0,0,0,.52.1L73.65,23Zm5.64-5.69c.09,0,1.63-.33,1.94-.33.07,0,.66.14.78.58a2.3,2.3,0,0,0-.76.31c-.19.08-1.06.16-1.23.21s-1,.27-1,.27a5.5,5.5,0,0,0-1.46.35,8.49,8.49,0,0,1-2.69.39,1.63,1.63,0,0,1-.73-.23l0-.12a12.21,12.21,0,0,0,3.33-.8,1,1,0,0,0,.59-1c0-1-.14-1.38-.47-1.71s-.45-.45-.5-.68a3.83,3.83,0,0,1,.92-.12c.31,0,1.91.25,1.91.76,0,.21-.47,1.62-.47,1.64,0,.25,0,.31-.09.43Zm-4.84,8h.09a.67.67,0,0,0,.47.14l2.27-.68c.45-.14,2.57-.43,3-.55a3.11,3.11,0,0,1,.83-.12c.35,0,.38,0,.92.41.07.06.57.31.64.37l.35.33c0,.21-.07.25-.52.74a6.59,6.59,0,0,0-.21,1.31c0,.1-.07.53-.07.64a1,1,0,0,1,.07.21l0,2c0,.16,0,.94,0,1.11A9.06,9.06,0,0,1,83.9,32a4.17,4.17,0,0,1-1-1.66c-.07-.19-.92-.21-1.11-.21a13.64,13.64,0,0,0-3.16.45c-.45.31-.5.35-.47.76a.35.35,0,0,1-.31.06l-.12-.1a.58.58,0,0,0-.17-.35,2.72,2.72,0,0,1-.09-.7c0-.21.24-1.64.21-2l-.09-1.71a2,2,0,0,0-.87-1.44Zm1-5.84s.21.23.24.27.57.45.66.53a5.64,5.64,0,0,1,.59,1.58c0,.21-.12.49-.31.49a3.06,3.06,0,0,1-1.13-2.05,1,1,0,0,0-.26-.72S77.74,19.1,77.83,19.1Zm2.1,10.48,2.34-.21.5,0c.07-.08.24-.29.24-.37s.12-.76.12-.9l0-2s-.07-.23-.07-.27,0-.72,0-.84c-.19-.18-.26-.23-.33-.25a10.32,10.32,0,0,0-2.57.27c-.24.1-1.32.43-1.51.55a1.77,1.77,0,0,1,.12.58c0,.16-.09.88-.09,1s0,.21,0,.25a2.15,2.15,0,0,0,.85-.27,4.75,4.75,0,0,1,1.06-.33l.64.06c0,.06.17.29.17.33s0,.25,0,.29a11.6,11.6,0,0,1-2.36.33s-.21-.08-.26-.08a.28.28,0,0,0-.12,0c0,.25-.14,1.81-.24,2.12Z"/><path class="cls-1" d="M95.77,26.29l0,0a.27.27,0,0,0,.17.06,1.73,1.73,0,0,0,.57-.27l1.39-1.11,1.79-1.44a2.19,2.19,0,0,1,.47-.35.7.7,0,0,1-.19.37,5.22,5.22,0,0,0-.73,1.25c-.14.27-.61,1-.87,1.42a2.93,2.93,0,0,1-1.11,1,3.05,3.05,0,0,1-.4.35.27.27,0,0,1-.09,0c-.14,0-.5-.47-.59-.56a4.06,4.06,0,0,1-.33-.25s0-.27-.07-.31a1,1,0,0,0-.14-.14ZM96,21.07c.07.1.09.1.21.12l.09,0a11.53,11.53,0,0,0,1.82.19.87.87,0,0,1,.92.9c0,.18-.07.37-.31.37a2.88,2.88,0,0,1-1.42-.51c-.14-.08-.83-.41-.94-.49l-.5-.43Zm1-3.29a2.46,2.46,0,0,0,1.25-.1l1.75-.6a3.16,3.16,0,0,0,1.18-.58,1.15,1.15,0,0,1,.76-.25,6,6,0,0,1,1.16.6c.28.14.59.29.59.66,0,.14-.57.43-.64.53a6.46,6.46,0,0,0-.73,2.22L102.31,22l-.07,1.13.09,1.93v2.12a16.54,16.54,0,0,1-.19,2.73,1.47,1.47,0,0,1-.52.78,6.54,6.54,0,0,1-1.32-1,8.55,8.55,0,0,1-.59-.9,2.65,2.65,0,0,0,.33.08,2.76,2.76,0,0,0,.8-.25L101,28l.17-2.12.07-.39,0-1.81,0-.25.17-4.46c0-.74-.09-.84-.4-1.13a14.5,14.5,0,0,1-2.79.76c-.5,0-.64-.14-1.3-.8ZM104,25a.92.92,0,0,0,.26.06,6,6,0,0,0,2-.9l1.68-1.07v0c-1.06,1.46-2.5,2.9-3.35,3.16a3.22,3.22,0,0,1-.45-.7l-.26-.43Zm.43-4.68c.09,0,.52.12.59.12,1.37.25,1.54.27,1.77.43a1.2,1.2,0,0,1,.5.9c0,.23-.26.31-.33.31a5.11,5.11,0,0,1-1.91-1c-.07,0-.31-.31-.38-.33a1.94,1.94,0,0,0-.35-.35A.27.27,0,0,1,104.39,20.33ZM105.47,17l.5,0,2.22-.76c.19-.06,1-.37,1.18-.41s.45-.14.52-.14.9.55,1,.64a7.45,7.45,0,0,1,1,.55.39.39,0,0,1,.07.25,7.94,7.94,0,0,1-.73.86,15.57,15.57,0,0,0-.43,1.73l0,1.68c0,.16,0,.84,0,1l0,1.85,0,.68.07,1.81,0,.14.07,1.87c0,.08-.24,1.34-.26,1.46-.17.33-.43.84-.5,1a.29.29,0,0,1-.12,0c-.26,0-.52-.18-1.16-.7-.12-.08-.57-.37-.66-.45s-.87-.86-1-1l.33,0a2.49,2.49,0,0,0,.66.12c.5,0,1-.33,1-.62a7.46,7.46,0,0,0,.21-1.52,2.56,2.56,0,0,1,0-.43l.09-4.93,0-2.12c0-.14-.07-.9-.07-1.07s-.09-1.44-.43-1.38l-1.61.27a5.41,5.41,0,0,1-1,.1,1.71,1.71,0,0,1-1.06-.39Z"/><path class="cls-1" d="M121.6,27.3c0,.06-.07.33-.07.37a1.13,1.13,0,0,0,.07.27h.4l2.81-.62c.21,0,.26-.06.28-.19a.6.6,0,0,0,.26-.49l.24-2,.09-.76,0-1.81,0-.9-.24-2.44-.09-.45-.71-1.62,0-.16c.54.14,2.79.8,2.81,1.23,0,.1,0,.6,0,.7L127.18,20a4.37,4.37,0,0,0-.09.9,1.33,1.33,0,0,0-.09.6l-.12,1.81-.07.12a1.17,1.17,0,0,1,0,.41,2.64,2.64,0,0,1-.12.8c0,.21-.07,1.29-.12,1.5s-.12.53-.12.58a.48.48,0,0,0,.09.27c.21,0,1.7-.18,1.84-.18h1.79c.07,0,.9.1,1,.1s.33-.12.33-.16l.28-1.93,0-.1.12-1.79c0-.08-.17-.57-.17-.68a.27.27,0,0,1,0-.14l-.07-.12a11.81,11.81,0,0,0,1.77.86c.14.06.38.16.38.25a11.77,11.77,0,0,1-.35,1.21l-.4,2.05L132.87,28c0,.18-.43,1.36-.5,1.5-.26.53-.28.58-.4.58s-.31-.37-.38-.58a13.63,13.63,0,0,0-.8-1.52l0-.16a.33.33,0,0,0-.26-.08c-.45,0-1.54,0-2,.1l-2.36.29-.4,0-2.17.49a19.19,19.19,0,0,0-2.67.82c-.21.08-1.25.35-1.46.43a1.31,1.31,0,0,1-.31-.78c0-.06-.19-.25-.28-.33a5.34,5.34,0,0,1,.47-.35c.4,0,.45-.08.83-.43s.33-.33.33-.41,0-.64,0-.74a4.25,4.25,0,0,0-.94-2.05,5.39,5.39,0,0,1-.92-.94.48.48,0,0,1-.12-.14,3.48,3.48,0,0,0-.14-.35l.14,0,2.24,1a1.76,1.76,0,0,1,.4.12.78.78,0,0,1,.09.21.43.43,0,0,1,.24.43Z"/><path class="cls-1" d="M260.85,19.17l-4.27.91-3.18.62c-.78.16-4.31,1-5.05,1.07-.35,0-1.79.12-2.18.13a3.33,3.33,0,0,1-1,.15,10.19,10.19,0,0,1-1.52-.84,4.55,4.55,0,0,1-.87-1.17c.17,0,.3,0,.44,0l.78.1c.26,0,2.7-.31,3.13-.39s2.26-.08,2.61-.17,2-.4,2.39-.45l3.44-.44A8.62,8.62,0,0,0,258,18c.44-.5.21-2.22.25-3.4a14.17,14.17,0,0,0-2.26.2,10.79,10.79,0,0,1-1.92,0,4.87,4.87,0,0,1-2.39-.8c.35-.12,2.13-.17,2.48-.22a29.74,29.74,0,0,0,4.09-.92V11.18l0-3.06c0-.42-.26-2.14-.22-2.48a3.05,3.05,0,0,1-.78-1.58,2.05,2.05,0,0,1,.48,0,25.1,25.1,0,0,1,3.83,1.59c.13.12.48.38.48,1.36,0,.08-1,2.72-1.18,3.24-.13.71,0,1.16,0,1.79.65-.06.78-.16,2.22-.85a1.64,1.64,0,0,1,.83-.09,2.88,2.88,0,0,1,1.65.74c.17.73,0,.76-.91,1.06a4.06,4.06,0,0,0-.52.34c-.17.06-3.27.76-3.4.86s0,.07-.09.22l0,3.14v.27l.83,0,3.9-.52c.39-.08,2.26-.35,2.66-.36a24.13,24.13,0,0,1,4.09-.2,4.48,4.48,0,0,1,2.31.64c.22.13,1.57,1.22,1.57,1.53s-.74.7-1.44.64c-.13,0-.91-.19-1-.2l-1.61-.13-4-.21a28.21,28.21,0,0,0-4.7.15C263,19,260.85,19.17,260.85,19.17Zm3.35,1.14a.57.57,0,0,1,.39.52c0,.15-.17,1-.17,1.2s0,.46.09.92a13.63,13.63,0,0,1,2.44-.18c1.26.1,2.26,1.47,2.09,2a7.63,7.63,0,0,1-1.79.2c-.09,0-.83-.14-1-.15s-1.61.17-1.87.15l0,1.21.13,3.52.22,3.29c0,.38-.09,2.42-.09,2.91,0,.08.09.92.09,1.11a7.22,7.22,0,0,1-.7,2.9c0,.11,0,.26-.09.45a2.33,2.33,0,0,1-.35.16c0,.07-.09.11-.09.18a6.39,6.39,0,0,1-3.27-1.89,3.14,3.14,0,0,0-.87-.6,3.9,3.9,0,0,0-1.18-.81,5.5,5.5,0,0,1-.44-.45c.39.07,1,.19,1.48.23a7.38,7.38,0,0,0,2-.14,3.46,3.46,0,0,0,1-2.11l.26-4.41-.13-5.43a6.45,6.45,0,0,0-2,.22l-3.27.57-3,.75a13.36,13.36,0,0,0,2.09,1.53c1.22.7,1.61.92,1.61,2.86a2.19,2.19,0,0,1-.22,1.31c-.57,0-.91,0-1.78-1.2a13.63,13.63,0,0,1-2.09-4.33c-.26,0-1.48,0-1.74,0a2.55,2.55,0,0,1-1.92-1.37,3.16,3.16,0,0,1,1.09,0l.65-.06,5.62-1.25,3.61-.7,1.35-.23c0-.37-.17-3.26-.22-3.52Z"/><path class="cls-1" d="M157.79,17.61c.78.33,2.22.4,2.92.91a3.33,3.33,0,0,1,.91,1.85,5.51,5.51,0,0,1-.22,1.08c-2.13,0-5.09-3.44-5.4-4.41A5.13,5.13,0,0,1,157.79,17.61Zm8-4.84a4,4,0,0,1-.57.64,10.83,10.83,0,0,1-3.48-1.6c-.26-.21-1.31-1.09-1.52-1.3s-.65-.89-.74-1-.09-.65.26-.62,2.7.67,2.83.72c1.22.32,2.39.76,2.87,1.78a6.6,6.6,0,0,1,.26,1A1.2,1.2,0,0,1,165.79,12.77Z"/><path class="cls-1" d="M158.32,32.14a1,1,0,0,0,.48.3l.61-.44,2.44-2.87L163,27.25l.39,0a13.34,13.34,0,0,1-.61,2.56c-.22.59-.74,3.27-1,3.78L161,35c-.09.14-.3.77-.39.88s-.57.6-.61.63c-.48,0-.61-.09-.78-.55-1.52-1.86-1.7-2.07-1.7-2.79a1.36,1.36,0,0,1,.39-.88Z"/><path class="cls-1" d="M172.4,19.67a22.83,22.83,0,0,0,3-.7c.47-.39.37-1.69.32-2.1-.3,0-1.74.32-2,.34a12.34,12.34,0,0,1-1.65.1,2,2,0,0,1-1.5-.8,1.18,1.18,0,0,1,.87,0l.39-.13,3.64-.91a2,2,0,0,0,.24-1.13c0-.19,0-1.35,0-1.61a.73.73,0,0,0-.26-.09c-.13,0-2.3.34-2.74.31s-2.23-.16-2.24-.66l1.35-.08c1.34-.3,1.47-.33,1.86-.39a16.93,16.93,0,0,0,1.9-.5,5.3,5.3,0,0,0,.07-.87c0-.3-.17-1.82-.18-2s0-1.4-.08-1.59-.51-1.31-.52-1.54l-.23-.35.21-.25.35,0c.84.35,1.71.63,2.59.9.61.19,1.67.47,1.68,1.19a1.06,1.06,0,0,1-.16.48c-.65.3-.75,1.55-.78,2.15,0,0-.16.6-.16.71a.42.42,0,0,0,.14.27c.26,0,1.17-.28,1.39-.3a8.39,8.39,0,0,1,1.52-.1c.57,0,2.1.27,2.11.84,0,.38-2,.72-2.46.81s-2.7.26-2.87.52a6.1,6.1,0,0,0-.15,2.53c.35-.06,1.73-.39,2-.45a5.58,5.58,0,0,1,.91-.06,6.31,6.31,0,0,1,1.67.74c.09.23.06.49-.55.61l-3.34.72c-.69.15-.69.14-.69.26l0,.72c0,.19,0,.92,0,1.15a.53.53,0,0,0,.09.27h.22l3.65-.4a35.55,35.55,0,0,1,6-.35,2.69,2.69,0,0,1,1.93.75,4.7,4.7,0,0,1,.67.49s0,.08,0,.15c0,.3-1.08.54-1.77.51l-.65,0c-.39.05-2.18-.2-2.53-.22s-2.35,0-2.48,0l-.83-.08-5,.47-1,.17-3.64.78-3.12.77a7.06,7.06,0,0,1-3,.66c-1-.06-1.23-.3-1.86-1.2a12,12,0,0,0,1.66.06Z"/><path class="cls-1" d="M172.74,23.13a.74.74,0,0,0,.75.27l4.07-1c.48-.12,2.56-.35,3.26-.42.09,0,.43-.16.52-.16a20.53,20.53,0,0,1,2.29,1,.72.72,0,0,1,.45.44c.13.12.4.29.4.48a11,11,0,0,1-.76,1,6.94,6.94,0,0,0-.49,1.22l.18,4,.06.8.24,4.66c0,.08.1.42.1.5s-.07.71-.07.87.1.53.1.61-.21,2.37-1.19,2.92v.15l-.25.29a2.39,2.39,0,0,1-.49-.44l-.35-.21c-.58-.68-1.56-1.68-2.1-2.39-.31-.4-.36-.44-.72-.83l0-.23c-.18-.2-.22-.28-.23-.47l.61,0c.09,0,.66.3.75.31a4.72,4.72,0,0,0,.83-.1l0-.15.17-.14h-.17l.25-.29.28-.93-.12-5.11L181,27c0-.49-.2-3.07-.25-3.23a.78.78,0,0,0-.8-.65c-1.44-.08-5.42,1-5.85,1.11a7.67,7.67,0,0,0-.2,2.64,4.34,4.34,0,0,0,1.78-.32,17.78,17.78,0,0,1,1.9-.54,3.72,3.72,0,0,1,1.14.33c-.23,1.12-2.64.72-3.76,1a6.27,6.27,0,0,0-1.08.39,19.22,19.22,0,0,0,0,2.27,10.39,10.39,0,0,0,2.39-.4,6.3,6.3,0,0,1,2.13-.26,1.92,1.92,0,0,1,1.32.49c-.29.55-1,.55-2.73.57a14.61,14.61,0,0,0-3.17.54c-.27,1.42-.44,3.45-.44,3.53s.1.38.1.46a1,1,0,0,1-.17.37,22.58,22.58,0,0,1-1,3.58l-.39-.14-.36-.59c-.05-.38-.1-.42-.27-.54,0-.15-.19-.73-.19-.88v-.26c0-.11.07-.75.07-.87l.67-3.14a17.46,17.46,0,0,0,.45-3l0-3.07a19.86,19.86,0,0,0,0-2.27,2.7,2.7,0,0,1-.15-.88Z"/><path class="cls-1" d="M222.68,16.18a51.18,51.18,0,0,0-4,4.23c-.1.09.37,0,.38,0,.43-.17.86-.37,1-.46l4.33-2.3,2.9-1.72c.13-.07.74-.63.91-.69,1-.38,1.13-.41,1.12-.9,0-.72-.84-1.08-1.8-1.38-1.23-1-1.36-1.08-2.06-1.13-.13.18-.17.22-.3.24s.4,1.28.4,1.39-.52.53-.6.6a21,21,0,0,1-2.29,2.11Z"/><path class="cls-1" d="M213.19,20.3c.26-.06.83-.13.82-.59a1,1,0,0,0-.44-.75c-.22-.13-1.48-.37-1.75-.5s-1.22-.69-1.36-.7c-.87-.06-1.52.8-1.82,1.12,0,.07-1.56.76-1.86.89l-3,1.32a4.07,4.07,0,0,0-1.09.38c-.26,0-1.35.24-1.52.23s-1-.14-1.13-.19l0,.16-.3.21A4.06,4.06,0,0,0,202,23c1.26.09,5.88-1.38,6.74-1.81a4.06,4.06,0,0,1,1.08-.45c.09.16.22.28.22.39a9.82,9.82,0,0,0-.34,1c-.17.21-1.29,2.25-1.42,2.47l-1.76,2.71c-.17.25-1.94,2.09-2.2,2.3l-2.42,2.21v.19l-1,.58a16.16,16.16,0,0,1,1.56-.42c.09-.11.26-.32.39-.35a1.85,1.85,0,0,0,.82-.36,2.85,2.85,0,0,0,1.43-.77c.74-.21,1-.39,2.64-1.86a7.27,7.27,0,0,0,2-2.05l.52-.61c.13-.44,1.15-2.42,1.37-2.89L213,20.47Z"/><path class="cls-1" d="M236.31,30.31c-.52-.15-3.58-1-4.1-1.2l-2.49-1c-.48-.19-2.84-1-3.06-1.09l-3.28-1.67-.44-.18-3.24-1.82a7.63,7.63,0,0,1-1-.64c-.4-.41-.26-.32-.57-.53,0-.32,0-.55,0-.73h0L218,19.5a2.76,2.76,0,0,1,0-.29c0-.08,0-1,0-1.33s.16-1.31.16-1.58l.3-5.09a4.26,4.26,0,0,1,.3-1.11A3.13,3.13,0,0,0,219.14,9c0-1-2.76-2.32-3.72-2.39-.17,0-.83,0-1,0a2,2,0,0,0,1,1.89c.09.61.37,2.6.42,3.25l.2,2.89.16,3.57.11,3.23c0,.19,0,1,0,1.19s0,1.78,0,2.12l0,3.27,0,1.6L216,32.27c-.29,2.14-1.85,2.18-3.94,2.1-.08.26.62,1,.88,1.12l.44.67c.22.09.26.13.7.58a7.15,7.15,0,0,0,2.76,2c.52,0,1.36-3.69,1.31-4.71V29.79l0-3.13c0-.11-.05-1-.05-1.13,0-.3-.1-1.71-.1-2.05a6.13,6.13,0,0,1,1.66,1l3.2,2.76L226,29.73c.92.75,3,2.34,4.51,2.44a51.24,51.24,0,0,0,8.13-1.08C238.31,30.91,236.7,30.45,236.31,30.31Z"/><path class="cls-2" d="M23.81,2.4a9.52,9.52,0,0,0-.87-1.31H22.5V.87A2.36,2.36,0,0,0,21.41.44V.22a7.06,7.06,0,0,0-3.06,0V.44L17,.66V.87H16.6v.22h-.44l-.22.44h-.44l-.66.87-.44.22v.44L14,3.28c-.26.39,0,.49-.44.87v.22a3.15,3.15,0,0,0-2.18,0h-.87A6,6,0,0,0,6.55,9.61l-2,.66v.22a2.34,2.34,0,0,1-1.09.66,2.51,2.51,0,0,1-.66,1.09H2.62v.44H2.4l-.22.87H2v.66H1.75v3.06a.54.54,0,0,1,.22.66H1.75l-.22.65L.88,19c-.34.52-1,3-.66,3.49v1.31H.44V24H1.53v.22l1.31.22,1.31,1.75H5.24s.05.16.44.22c-.08-.81-.55-2.21-.22-3.28h.22a15.09,15.09,0,0,1,.44-1.75h.22V21h.22v-.87H6.34a10.18,10.18,0,0,1,.22-3.71h.22v-.44l.44-.22v-.44l.87-.66.22-.44h.43L9,13.76h.44c.54-.44.48-1.79.88-2.4l1.09-.87.22-.44H12V9.83l1.09-.22V9.39h.66l1.53,2.18v.87h.22v2.18l.66.44v.44l.44.22.22,1.53H17l-.22,2.84c-.16.42-1.08,1.24-.88,2h.22l.22.88h.22c.07.87.15,1.75.22,2.62l2-.22v-.22h.44l.22-.43a4.76,4.76,0,0,1,2.18-.44V24h.22V21.84h-.22v-.66h-.22l-.22-.66.44-.22v-.44h.22a8.45,8.45,0,0,0,0-4.15h-.22l-.22-.87h-.22L20.53,14l-.44-.22V12h-.22V10.92h-.22v-.66h-.22V9.83l-.66-.44c-.35-.5-.42-.94-.87-1.31,0-.68-.11-1.62.22-2l.22-.22.44.66h.44v.22h.87V7l1.75-.22c.65-.77,1.45-.73,1.75-2h.22V3.93H24V3.06h-.22ZM26,6.55l1.31.22V7l2.18-.44V6.33l.66-.44v.22h.22v2h-.22v.44l-.44.22v.44l-.87.66v.66h-.22v.44H28.4l-.22,2.84-.66.44a6.46,6.46,0,0,0-1.31,2.18v2.84c.11.32,1,1.25.87,1.75l-.44.22v.66h-.22c0,.72-.13,1.81.22,2.19s1.18.19,1.75.44v.22h.44v.22h.44l.22.44H30.8v.22h.87a3.13,3.13,0,0,1,.22-2.4V22.5h.22l.44-.87-.44-.22-.22-.87h-.22v-.44h-.22V19h-.22a7,7,0,0,1,.66-3.49h.22v-.44l.66-.44L33,11.79h.22v-.66l.44-.22v-.44h.22l.87-1.09a5.06,5.06,0,0,1,3.71,2.84l.22,1.31c.21.28.81.25,1.09.44l.22.44,1.31,1.09A8.55,8.55,0,0,1,42.15,19c-.08.33-.61,1.42-.44,2h.22l.44,1.31h.22c.48,1.19.12,3,0,4.15a7.51,7.51,0,0,1,1.75-.22c.2-.91.7-1.08,1.09-1.75a8.51,8.51,0,0,1,2.4-.44v-.22h.22c.06-1.84.3-2.41-.44-3.93v-.44H47.4V19L47,18.78v-.44a2.35,2.35,0,0,1-.44-.44h-.22a12.57,12.57,0,0,1,.44-1.75,11.13,11.13,0,0,0-1.09-3.93L45,11.79v-.44l-.44-.44h-.44l-.44-.66h-.44V10c-.47-.25-1.28-.2-1.53-.65V8.3H41.5V7.86h-.22V7.21L40.85,7a5.53,5.53,0,0,0-6.12-2.62C33.66,1.94,31.82.7,29.05,0L26.87.22c-.78.88-1.82.72-2.19,2.18-.56.59-.27,1.41-.22,2.4L26,6.55M7.21,21.41H7C6.64,22,5.74,24.76,6.12,26h.22v.87h.22l.22.22v-.44H7v-.44c.1-.15.29-.14.44-.44H8.52A5.9,5.9,0,0,1,9.39,24c.6-.13,2.08-.52,2.62,0,.89.25.44.44,1.09.87v.66a3.32,3.32,0,0,1,2,.44v.65l.66-.22a4.44,4.44,0,0,0,.22-3.28c-.11-.26-1-1.18-.87-1.53h.22l.22-.66h.22a7.72,7.72,0,0,0,.66-3.28h-.22V16.6h-.22l-.22-.88h-.22v-.44l-.87-.66c-.11-.31.4-.88.22-1.53a4.5,4.5,0,0,0-1.53-2.62v-.22c-.17.08-.73.13-.87.22v.22c-1.27.33-1.5,1.5-2,2.62V14c-.18.28-1.23.45-1.53.65l-.66.88H8.08v.44l-.44.22v.44H7.43v.66H7.21v2.4h.22l.22,1.09L7.21,21Zm34.73,5.68c0-1.7.43-3.3-.22-4.81H41.5v-.44h-.22L41.06,21l-.44-.22.22-1.09h.22a6.61,6.61,0,0,0-.65-3.93h-.22l-.87-1.09h-.44l-.22-.44c-.33-.2-.68.09-.88-.22l-.22-1.75a3.77,3.77,0,0,0-2.18-1.75c-.25-.24,0-.09-.44-.22l-.44.66h-.22l-.44,1.31h-.22v1.09c0,.07-.28.06-.22.44h.22v.87l-.87.66c-1,1.52-1.12,5.34.44,6.33-.25.92-1.66,2.38-1.09,3.93h.22V26h.22l.22.65h.44l.22-.87a7.54,7.54,0,0,1,1.75-.22c.2-.91.7-1.08,1.09-1.75a6,6,0,0,1,2.62.22v.22l.65.44.22,1.09h.87V26c.66.18.75.41.87,1.09Zm-26.43,14,1.75,1.53.66.87c.49.35.94.42,1.31.88h.22c-.13-1-1-1.59-1.53-2.19l-.44-.22V41.5l-.65-.44v-.44l-.44-.22-.22-.66h-.22v-.44h-.22L15.29,38h-.22l-.22-1.31h-.22l-.22-1.75H14.2V33H14q.11-1.86.22-3.71h.22v-.88h.22a2,2,0,0,0-.22-2L14.2,26H12.67v-.65h-.22c-.23-.85-.06-.3-.66-.66v-.22c-1-.55-1.91.08-2.62.44L9,26.21l-1.31.22v.22c-.37.25-.3.13-.44.66-.5.71.73,5.13,1.09,5.9l.22,1.09h.22l.44,1.31h.22V36h.22L10,37.35l.44.22.22.87.44.22.22.65.66.44v.44l2,1.75L14.85,43h.44l.44.66h.44l.22.44a9,9,0,0,0,2.4,1.09c-.18-1.13-.69-.93-1.31-1.53l-1.53-1.75-.66-.44v-.44l-.87-.66V40L14,39.75l-.22-.65h-.22l-.44-1.31h-.22v-.44h-.22L12.23,36H12l-.22-1.31h-.22v-.44h-.22v-.88a16,16,0,0,1-.87-5h.66a21,21,0,0,0,4.37,12.67m14.2,3.49h-.22v.66a8.92,8.92,0,0,0,2.4-1.09l.22-.44h.44l.22-.44h.44l.87-1.09L36.48,40v-.44l.65-.44v-.44l.44-.22V38l.44-.22.22-.87.44-.22v-.44h.22l.22-.87h.22v-.66h.22l.22-.87H40V33.2h.22a16.75,16.75,0,0,0,.87-4.81l.22-1.09h-.22l-.22-.66a4.23,4.23,0,0,0-1.53-.44v-.87H39.1c-.23-.85-.06-.3-.66-.66v-.22c-.94-.51-1.59,0-2.4.22L35.6,26H34.29v.22l-.66.22a5.71,5.71,0,0,1-.22,1.09h.22v.66h.22v1.09h.22v1.31h.22a10.55,10.55,0,0,1-.44,4.37V36h-.22l-.44,2H33v.44h-.22l-.44,1.31-.44.22c-.91,1.38-1.62,2.88-3.06,3.71.13.44,0,.19.22.44s0,0,.22.22l3.5-3.28a20.38,20.38,0,0,0,4.37-12.67h.66A22.51,22.51,0,0,1,33.2,41.28l-3.5,3.28m-8.3-1.09c-1.22,0-1.33.49-1.75,1.31h-.22v.87h-.22L19.44,47l-3.06-.87v-.22l-1.31-.44v-.22l-1.31-.44-.22-.44-.87-.22-.22-.44H12l-.66-.88h-.44L10,41.72,8.08,40v-.44l-.87-.66v-.44l-.44-.22-.22-.65H6.34v-.44l-.44-.22L5.68,36l-.44-.22v-.43H5v-.44H4.81v-.66H4.59l-.22-.88H4.15v-.65a13.12,13.12,0,0,1-1.09-3.71c.44.13.19,0,.44.22L4.59,33.2h.22l.22.87h.22v.66h.22v.44h.22v.44l.44.22.44,1.31.44.22v.44l.44.22.22.66.66.44v.44l1.09.87,2,2.18h.44l.44.66h.44l.22.44.66.22v.22l.87.22.22.44h.44V45h.44v.22l1.09.22v.22h.66v.22l1.31.22v.22h.22v-.44l-2.84-1.53-.22-.44h-.44l-.44-.66h-.44l-1.75-2-1.09-.87V40l-.66-.44V39.1l-.44-.22-.22-.66H10v-.44l-.44-.22-.44-1.31L8.74,36V35.6H8.52v-.66H8.3l-.22-.87H7.86v-.66H7.65V33H7.43l-.88-5.24a4,4,0,0,1-.65-.66c-1.13-.24-1-.43-2.18-.22a7.59,7.59,0,0,0-.87-1.75L2,24.9v-.22H1.09v-.22A2.77,2.77,0,0,0,0,24.68,22.86,22.86,0,0,0,3.06,35.82v.44h.22v.44l.44.44v.44h.22l.22.65.44.22v.44l.87.66V40l.66.44,1.31,1.53h.44l.66.87H9l.44.66h.44l.22.44h.44l.22.44.66.22v.22l1.31.44.22.44h.44v.22h.44v.22h.66v.22h.44v.22h.66v.22h.44V47l1.31.22v.22l2,.22a6.62,6.62,0,0,0,3.49.22v-.22h.44l.44-.66h.22v-.65H24a3.89,3.89,0,0,0-.87-2.62c-.63-.14-1.28-.62-1.75-.22m26.65-19a3,3,0,0,0-1.75.44,2.5,2.5,0,0,0-1.75,2c-.44-.13-.19,0-.44-.22a2.71,2.71,0,0,0-2.18,1.09h-.22l-.22,2.18h-.22v1.53h-.22v.87h-.22V33h-.22v.65a36.71,36.71,0,0,1-3.93,6.77l-1.75,1.53-1.09,1.31h-.44L33,43.9h-.44l-.44.66-.87.22-.22.44h-.44v.22c-.44.25-.53,0-.87.44h-.22v.44c.46-.18,1.12-.49,1.53-.66h.66v-.22L33,45v-.22h.44v-.22h.44v-.22l.87-.22.22-.44h.44l.22-.44H36l.44-.66h.44l.87-1.09,2.19-2V39.1l.87-.66V38l.44-.22.22-.66h.22l.22-.87.44-.22.22-.88a20.86,20.86,0,0,0,2.18-6.11h.44a12.06,12.06,0,0,1-1.09,3.71v.65H43.9v.44h-.22v.66h-.22l-.22.88H43l-.22.87-.44.22-.22.87h-.22l-.22.66-.44.22v.44l-.87.65v.44l-2.18,2L37.13,43H36.7l-.44.66h-.44l-.22.44h-.44l-.22.43-.87.22V45h-.44v.22H33.2v.22l-1.31.44v.22h-.66v.22l-2.18.44V47h-.22l.22-1.53c-.22-.84-.94-1.31-1.31-2l-1.31-.22v.22h-.87v.22h-.44c-.09.05-.2.31-.44.44-.2.89-.77,1.89,0,2.62.68,2.46,6.1.61,7.64,0H33v-.22h.44v-.22h.66v-.22l.87-.22v-.22l.87-.22L36,45l.88-.22.22-.44h.44l.22-.44h.44l.22-.44h.44L39.1,43h.44l.65-.87h.44l.87-1.09L43,39.75v-.44l.66-.44v-.44l.44-.22v-.44l.44-.22.22-.87.44-.22.65-2h.22l.22-.87h.22V33h.22v-.66H47v-.66h.22V31h.22v-.66h.22V29.27h.22c.25-.8,0-2.08.44-2.62a6.77,6.77,0,0,0-.22-2.18m-28.18.65v.22h-.44L19,26H16.82l-1.31,1.09-.87,3.06v3.5h.22q.11,1.2.22,2.4c.87,2.48,2.83,6.4,5,7.43v-.22h.22c0-.34-.58-.51-.65-.66v-.44h.44c.14.53.23.48.44.87.44-.13.19,0,.44-.22h.22c-.38-.64-.52-1.25-.87-2h-.22c-.39-.89-1.34-5-.87-6.55h.22V33h.22V31.89h.22l.22-1.31h.22v-.44h.22l.22-1.09.44-.22.22-.87.44-.22V27.3l.44-.22v-.22l.44-.22v-.44h.22a2.31,2.31,0,0,0,.66-1.09L22.5,24.9v-.22a5.47,5.47,0,0,0-2.62.43M28,43.25l.66.22,1.09-1.31.44-.22V41.5l.65-.44v-.44l.44-.22V40l.44-.22.22-.87h.22l.22-.87h.22v-.66h.22V36.7H33V36h.22v-.88h.22V33.85h.22V29.92h-.22V28.83H33.2c-.07-.44-.15-.87-.22-1.31h-.22c-.75-1.42-1.36-1.76-3.28-1.31l-.65-.87H28.4v-.22c-1.32-.71-2.42-.29-3.71,0,.27.95.69.75,1.09,1.31v.44l.66.44v.44l.44.22v.44l.44.22.22.87h.22l.22.88h.22l.22,1.53c.34,1,1.13,4.24.66,5.9h-.22v1.09h-.22l-.22,1.53h-.22l-.22.87h-.22v.44h-.22c-.24.45,0,.53-.44.87v.22l.66.22c.62-1.1,1.69-1.86,2-3.28h.44c-.32,1.42-1.35,2.18-2,3.28-.25.19,0,0-.22.22"/></svg>